<?xml version="1.0" encoding="UTF-8" standalone="no"?>
<svg
   xmlns:dc="http://purl.org/dc/elements/1.1/"
   xmlns:cc="http://creativecommons.org/ns#"
   xmlns:rdf="http://www.w3.org/1999/02/22-rdf-syntax-ns#"
   xmlns:svg="http://www.w3.org/2000/svg"
   xmlns="http://www.w3.org/2000/svg"
   xmlns:sodipodi="http://sodipodi.sourceforge.net/DTD/sodipodi-0.dtd"
   xmlns:inkscape="http://www.inkscape.org/namespaces/inkscape"
   version="1.0"
   width="96.668167mm"
   height="120.9675mm"
   id="svg4416"
   inkscape:version="0.91 r13725"
   viewBox="0 0 96.668167 120.9675"
   sodipodi:docname="breckockshire.svg">
  <metadata
     id="metadata4687">
    <rdf:RDF>
      <cc:Work
         rdf:about="">
        <dc:format>image/svg+xml</dc:format>
        <dc:type
           rdf:resource="http://purl.org/dc/dcmitype/StillImage" />
        <dc:title></dc:title>
      </cc:Work>
    </rdf:RDF>
  </metadata>
  <sodipodi:namedview
     pagecolor="#ffffff"
     bordercolor="#666666"
     borderopacity="1"
     objecttolerance="10"
     gridtolerance="10"
     guidetolerance="10"
     inkscape:pageopacity="0"
     inkscape:pageshadow="2"
     inkscape:window-width="1920"
     inkscape:window-height="1057"
     id="namedview4685"
     inkscape:document-units="mm"
     showgrid="false"
     inkscape:zoom="1.5573259"
     inkscape:cx="-69.239104"
     inkscape:cy="192.96082"
     inkscape:window-x="-8"
     inkscape:window-y="-8"
     inkscape:window-maximized="1"
     inkscape:current-layer="svg4416" />
  <defs
     id="defs4418">
    <pattern
       id="WMFhbasepattern"
       patternUnits="userSpaceOnUse"
       width="6"
       height="6"
       x="0"
       y="0" />
  </defs>
  <path
     style="fill:none;stroke:none"
     d="M 64.854667,65.362667 64.410167,64.748833 62.6745,63.0555 62.251167,62.145333 60.579,60.536667 l -0.02117,-0.486834 0.973667,-1.100666 0.148167,-0.889 -0.635,-0.254 -0.465667,0 -0.867833,0.508 -0.04233,0.762 L 59.224333,58.928 58.42,58.314167 l -0.02117,-3.175 -0.719666,-0.3175 -1.756834,-0.486834 -0.550333,-0.02117 -0.846667,0.169333 -0.127,0.02117 -0.465666,0.465666 -0.127,0.423334 -1.058334,0.127 -1.100666,0.677333 -1.227667,0.402167 -0.0635,-0.02117 -0.910167,-1.100667 0,1.185334 L 49.233667,58.6105 48.683333,60.430833 48.133,62.6745 47.328667,64.897 46.609,67.098333 45.825833,68.961 45.72,69.236167 l -1.058333,1.651 -1.375834,1.143 -0.465666,0.402166 -2.688167,1.5875 -1.143,0.635 -0.465667,-0.254 -0.4445,0.719667 -1.7145,1.756833 L 35.941,76.581 l -0.910167,0.867833 -1.651,1.143 -0.846666,-0.232833 -1.058334,-0.656167 -1.397,0.402167 -5.588,0.783167 0.04233,0.6985 0.508,0.592666 0.02117,0.613834 -0.508,0.381 0.08467,0.423333 1.375833,0.508 2.6035,0.254 2.074334,0.465667 2.032,0.08467 0.381,-0.3175 0.423333,0.381 0.275167,-0.275166 3.513666,0.338666 0.550334,-0.232833 0.254,0 0.973666,0.550333 1.693334,-1.058333 0.402166,0.04233 0.02117,0.4445 0.338667,0.423334 0.719666,-0.338667 0.550334,0.04233 0.931333,-0.656166 3.069167,-1.439334 0.613833,-0.232833 0.592667,-0.486833 0.254,-0.04233 0.656166,0.529167 0.254,0 0.148167,-0.02117 0.508,-0.529166 0.423333,-0.02117 1.524,-1.3335 0.508,-0.08467 1.439334,0.867834 0.148166,0 1.4605,-0.846667 0.1905,0 2.899834,1.629833 0.402166,0.423334 0.635,-0.423334 0.0635,-0.402166 1.524,-1.185334 0.508,-0.4445 -0.02117,-0.3175 -0.254,-0.402166 -0.0635,-5.926667 0.9525,-0.719667 -0.656167,-0.508 0.211667,-0.359833 -0.211667,-0.486833 0.4445,-0.762 0.0635,-0.613834 -0.465667,-0.550333 0.762,-0.783167 1.143,0 0.889,-0.910166 0.486834,-0.508 z"
     id="path4511"
     inkscape:connector-curvature="0" />
  <path
     style="fill:none;stroke:none"
     d="m 72.7075,36.808833 -0.465667,0.931334 -0.973666,0.5715 -2.434167,0.254 -0.719667,1.3335 0.02117,0.719666 0.740833,4.3815 -0.529166,0.889 -0.127,0.6985 -1.397,0.423334 -1.9685,-0.211667 -0.254,0.635 -0.359834,0.1905 -1.143,-0.296333 -1.7145,0.4445 -1.651,-0.127 -0.740833,0.529166 0,0.296334 0.3175,1.185333 -0.275167,1.820333 -0.529166,0.529167 -2.582334,1.375833 -0.889,-0.04233 -0.275166,0.8255 -0.359834,0.338667 0.127,-0.02117 0.846667,-0.169333 0.550333,0.02117 1.756834,0.486834 0.719666,0.3175 0.02117,3.175 0.804333,0.613833 0.4445,0.148167 0.04233,-0.762 0.867833,-0.508 0.465667,0 0.635,0.254 -0.148167,0.889 -0.973667,1.100666 0.02117,0.486834 1.672167,1.608666 0.423333,0.910167 1.735667,1.693333 0.4445,0.613834 0.508,-0.550334 0.402166,0 0.529167,0.973667 0.359833,0.02117 0.275167,-0.867834 0.359833,-0.0635 0.973667,-1.227666 1.100667,-0.592667 0.359833,0.105833 0.338667,0.6985 0.550333,0.254 0.550333,0.0635 1.016,-0.508 0.783167,-0.08467 1.164167,-1.185334 1.037166,-0.889 0.127,-0.04233 0.508,-0.465667 0.846667,0.804334 0.4445,0.04233 0.889,-1.016 0.381,-0.08467 1.354667,-0.994833 0.5715,-0.08467 0.5715,0.127 0.5715,0.211667 0.211666,0.381 0.1905,0.3175 0.9525,-1.2065 0.677334,-0.127 0.867833,-0.4445 0.6985,-0.254 2.582333,0.127 0.211667,-0.3175 -0.254,-0.656167 -0.02117,-0.3175 0.381,-0.402166 0.381,0.3175 0.211667,-0.02117 0.211667,-0.381 0.127,-0.762 -0.719667,-1.185333 -0.656167,0.08467 -1.143,0.8255 -0.02117,0.529167 -0.613834,0.508 -0.550333,0.211667 -0.783167,-0.846667 0.740834,-0.423333 0.02117,-0.5715 -0.402166,-0.5715 0,-0.359834 L 85.217,53.932667 85.640333,53.848 85.979,53.678667 l 0,-0.486834 0.8255,-1.947333 0,-0.783167 L 86.635167,50.2285 87.376,49.678167 87.545333,48.895 l 0.254,-0.719667 0.613834,-1.27 0.486833,-0.6985 1.248833,0.0635 0.465667,0.465667 0.465667,-0.4445 0,-0.3175 -0.677334,-0.8255 -0.762,-0.338667 -0.550333,0.105834 -0.381,-0.635 -0.486833,-0.169334 -0.656167,-0.3175 -0.529167,-0.931333 -0.359833,0 -0.4445,0.381 -0.529167,0.02117 -0.3175,-0.127 -0.169333,-0.423334 -0.232833,-0.275166 -0.381,-0.08467 -1.756834,1.016 -0.656166,0.211667 L 80.179333,43.561 79.6925,43.264667 79.5655,42.4815 l -0.656167,-1.735667 -0.9525,-1.227666 -0.973666,-0.740834 -0.381,-0.148166 L 75.692,37.888333 76.0095,37.570833 75.713167,37.105167 74.676,37.380333 73.892833,37.4015 72.7075,36.808833 Z"
     id="path4515"
     inkscape:connector-curvature="0" />
  <path
     style="fill:none;stroke:none"
     d="M 24.595667,96.096667 24.108833,95.1865 23.135167,94.699667 22.394333,94.9325 l -0.846666,-0.148167 -0.804334,0.4445 -0.656166,-0.254 -0.550334,-0.423333 0,-0.3175 0.677334,-0.613833 0.275166,0.486833 0.338667,0.04233 0.4445,-0.338666 0.762,-0.1905 0.529167,-0.402167 -0.232834,-0.550333 -0.5715,-0.550334 -0.6985,-0.04233 -0.1905,-0.423333 0.8255,-0.804334 0.169334,-0.719666 0.635,-0.169334 1.375833,-0.846666 1.058333,0.254 1.608667,0.105833 0.508,-0.740833 1.185333,-0.169334 0.9525,0.232834 L 30.882167,87.122 33.528,86.9315 33.506833,85.449833 32.4485,85.0265 32.025167,84.455 l -0.677334,-0.423333 -0.592666,-0.762 0,-0.465667 -2.2225,-0.486833 -2.54,-0.232834 -1.375834,-0.508 L 24.511,81.110667 23.876,80.602667 23.579667,80.115833 22.0345,79.756 l -0.529167,0.338667 0.105834,0.275166 0.04233,0.105834 -0.740833,0.846666 -1.143,0.4445 -1.016,0.02117 -0.592667,0.550333 0,0.4445 L 18.6055,83.439 18.245667,83.904667 17.7165,83.735333 16.742833,84.031667 16.150167,83.163833 15.748,83.333167 15.261167,84.1375 13.081,84.624333 l -0.169333,-0.846666 0,-0.423334 -1.121834,0.254 L 9.9906667,83.142667 9.398,83.439 l 0.0635,0.296333 -0.1905,0.677334 0.2963333,0.592666 -1.143,0.867834 L 7.366,85.703833 6.4558333,86.952667 4.5085,87.164333 3.1326667,87.989833 1.4393333,88.688333 0.52916667,88.4555 0.762,89.048167 0.59266667,89.619667 0,90.551 l 0.0635,0.465667 0.67733333,0 L 1.524,90.466333 l 1.524,0.105834 1.6933333,0.296333 0.1905,0.4445 1.4393334,0.04233 1.1006666,1.672167 0.084667,0.296333 -0.1693333,0.4445 0.7831666,1.608667 0.021167,0.550333 -0.2116667,0.3175 0,1.693334 -0.5715,0.423333 L 6.6251667,98.128667 5.2493333,98.530833 4.1486667,99.525667 3.7888333,99.5045 3.3655,100.47817 l -1.143,0.3175 1.2276667,0.46566 0.635,0.86784 0.1481666,0.52916 0.381,-0.254 0.2116667,-0.23283 0,-0.21167 -0.4445,-0.65616 0.3386667,-0.3175 0.5503333,0.127 1.1853333,0.0635 0.6561667,-0.48684 0.2116667,0.74084 0.4656666,0 0.635,-0.21167 1.9261667,0.40217 1.248833,0.127 0.381,-0.16934 0.740834,0.381 -0.635,0.3175 0,0.35984 1.100666,0.0423 0.169334,0.27517 -0.211667,0.4445 -1.629833,-0.0635 -0.529167,-0.508 -0.931333,-0.4445 -0.8255003,0 0.2751666,0.35983 -0.635,0.42333 -0.508,-0.0423 -0.9101666,-0.762 -0.508,0.0423 -0.4233334,0.3175 0.6138334,0.381 0.762,0.10584 0.6561666,1.27 0.1905,0.35983 -0.021167,0.1905 -0.4021667,0.48683 -0.021167,0.381 2.1378337,0.55034 1.481666,0.29633 1.143,0.508 0.1905,0.21167 0.783167,-0.61384 0.740833,-0.0212 -0.211666,-0.3175 0.02117,-0.46567 1.799167,-1.3335 1.354667,-0.55033 1.227666,0.27516 0.148167,0.0423 0.889,-0.4445 0.804333,0.23283 0.9525,-1.62983 L 21.59,102.27733 21.568833,101.5365 23.071667,100.54167 23.622,100.30883 23.5585,100.076 24.13,99.441 24.426333,99.06 24.595667,98.4885 24.384,98.382667 l -0.402167,-0.254 0.296334,-0.5715 L 24.235833,97.3455 23.749,96.752833 24.595667,96.096667 Z"
     id="path4523"
     inkscape:connector-curvature="0" />
  <path
     style="fill:none;stroke:none"
     d="m 28.215167,100.203 4.5085,0.0423 -0.0635,-0.402163 -0.6985,-0.740834 -0.02117,-0.275166 0.8255,-1.397 0.127,-0.359834 0.296333,0 0.635,0.592667 -0.402166,0.486833 0.232833,0.359834 1.248833,0.719666 0.613834,0 0.740833,-0.4445 1.248833,-1.545166 0.211667,0.02117 0.127,1.248834 -0.423333,0.3175 0.338666,0.889 0.550334,0.338663 0.910166,0.10584 0.105834,0.59266 0.529166,-0.0635 0.613834,0.59267 0.592666,-0.52917 0.148167,0 0.508,0.33867 0.804333,-0.61383 -0.635,-0.635003 0.486834,-0.4445 0.127,-0.296334 1.164166,-1.418166 0.232834,0.04233 0.232833,0.232833 1.756833,-1.164166 0.359834,-0.02117 0.6985,1.735667 2.836333,-1.058334 0.3175,-0.656166 2.137833,0.275166 0.508,-0.3175 0.783167,0.3175 0.4445,0 0.719667,-0.677333 2.307166,0.105833 0.8255,0.4445 0.254,-0.296333 L 58.42,95.9485 59.033833,95.3135 59.309,94.339833 59.69,93.853 l 0.08467,-0.592667 1.608666,-2.032 0.381,-0.677333 -0.254,-0.9525 0.5715,-0.973667 0,-0.275166 -0.592666,-0.931334 0,-0.169333 0.846666,-0.804333 0.127,0 0.4445,-0.296334 0.338667,-0.613833 1.058333,-0.889 0,-0.486833 -0.677333,-0.8255 -0.275167,-0.550334 -1.248833,-0.465666 -0.867833,-0.508 0,-0.465667 0.296333,-0.550333 -0.04233,-0.105834 -1.2065,-0.338666 -0.359834,-0.423334 -0.0635,-0.359833 -0.3175,0.275167 L 59.436,80.306333 58.843333,80.666167 58.42,80.179333 l -2.921,-1.608666 -1.481667,0.846666 -0.359833,0 -1.312333,-0.846666 -0.5715,0.127 -1.5875,1.354666 -0.381,0 -0.529167,0.529167 -0.3175,0.02117 -0.635,-0.508 -0.3175,0.02117 -0.550333,0.508 -0.804334,0.254 -2.8575,1.397 -0.973666,0.635 -0.486834,0 -0.719666,0.254 L 41.275,82.804 l -0.148167,-0.486833 -0.3175,0 -0.508,0.275166 -1.2065,0.783167 -0.931333,-0.5715 -0.423333,0.02117 -0.465667,0.1905 -3.471333,-0.338667 -0.296334,0.338667 -0.402166,-0.423334 -0.3175,0.254 -2.032,-0.02117 0,0.381 0.550333,0.8255 0.719667,0.465666 0.423333,0.529167 0.994833,0.4445 0.0635,1.4605 L 30.861,87.122 29.167667,88.773 28.172833,88.519 26.9875,88.730667 26.585333,89.513833 24.8285,89.365667 23.876,89.0905 22.436667,89.9795 21.844,90.127667 21.6535,90.8685 20.870333,91.651667 21.082,92.075 l 0.740833,0.105833 0.5715,0.5715 0.211667,0.423334 -0.550333,0.423333 -0.783167,0.232833 -0.423333,0.296334 -0.296334,0.02117 -0.338666,-0.4445 -0.677334,0.529167 -0.02117,0.275167 0.508,0.423333 0.740833,0.3175 0.783167,-0.4445 0.846666,0.105833 0.783167,-0.211666 0.9525,0.486833 0.486833,0.889 -0.867833,0.6985 0.486833,0.5715 0,0.211667 -0.296333,0.5715 0.359833,0.275166 0.296334,0.0635 -0.1905,0.592667 -0.846667,0.99483 0.08467,0.254 4.572,-0.10583 z"
     id="path4527"
     inkscape:connector-curvature="0" />
  <path
     style="fill:#dc241f;fill-opacity:1;fill-rule:nonzero;stroke:none"
     d="m 87.799333,91.397667 -0.508,0.423333 0.508,-0.423333 0,0 z"
     id="path4661"
     inkscape:connector-curvature="0" />
  <path
     style="fill:none;stroke:none"
     d="m 87.799333,91.397667 -0.508,0.423333 0.508,-0.423333 0,0 z"
     id="path4663"
     inkscape:connector-curvature="0" />
  <path
     style="fill:#dc241f;fill-opacity:1;fill-rule:nonzero;stroke:none"
     d="m 85.725,88.222667 0.359833,0.232833 0.0635,0.783167 0.804334,0.486833 0.592666,0.9525 -0.04233,-0.08467 -0.5715,-0.910166 -0.740833,-0.4445 L 86.084833,88.4555 85.725,88.222667 Z"
     id="path4665"
     inkscape:connector-curvature="0" />
  <path
     style="fill:none;stroke:none"
     d="m 85.725,88.222667 0.359833,0.232833 0.0635,0.783167 0.804334,0.486833 0.592666,0.9525 -0.04233,-0.08467 -0.5715,-0.910166 -0.740833,-0.4445 L 86.084833,88.4555 85.725,88.222667 Z"
     id="path4667"
     inkscape:connector-curvature="0" />
  <path
     style="fill:#dc241f;fill-opacity:1;fill-rule:nonzero;stroke:none"
     d="m 85.703833,87.418333 -0.02117,0.02117 -0.02117,0.148167 0.04233,-0.169334 z"
     id="path4669"
     inkscape:connector-curvature="0" />
  <path
     style="fill:none;stroke:none"
     d="m 85.703833,87.418333 -0.02117,0.02117 -0.02117,0.148167 0.04233,-0.169334 z"
     id="path4671"
     inkscape:connector-curvature="0" />
  <path
     style="fill:#dc241f;fill-opacity:1;fill-rule:nonzero;stroke:none"
     d="m 86.2965,87.0585 -0.3175,0.1905 0.3175,-0.1905 0,0 z"
     id="path4673"
     inkscape:connector-curvature="0" />
  <path
     style="fill:none;stroke:none"
     d="m 86.2965,87.0585 -0.3175,0.1905 0.3175,-0.1905 0,0 z"
     id="path4675"
     inkscape:connector-curvature="0" />
  <path
     style="fill:#006fff;fill-opacity:1;fill-rule:nonzero;stroke:none"
     d="m 80.179333,59.668833 -0.486833,0.08467 -1.397,1.058333 -0.381,0.08467 -0.762,0.910167 -0.529167,0.02117 L 75.819,61.0235 l -0.529167,0.402167 -0.0635,0.0635 -0.148166,0.105833 -1.100667,0.994833 -1.016,0.973667 -0.9525,0.1905 -0.846667,0.402167 -0.4445,0 -0.613833,-0.296334 -0.508,-0.783166 -0.381,0.02117 -1.016,0.613834 -0.973667,1.164166 -0.3175,0.127 -0.254,0.783167 -0.359833,-0.02117 -0.529167,-0.9525 -0.402166,0.02117 -1.905,1.905 -1.121834,0.04233 -0.804333,0.719667 0.423333,0.550333 0.04233,0.740834 -0.4445,0.613833 0.169333,0.486833 -0.254,0.4445 0.719667,0.529167 -0.973667,0.719667 0.0635,5.926666 0.232833,0.338667 0,0.3175 -0.550333,0.613833 -1.121833,0.804334 0.08467,0.359833 0.338667,0.338667 1.164167,0.402166 0.08467,0.232834 -0.232833,0.402166 0,0.508 1.0795,0.592667 0.9525,0.359833 0.338667,0.613834 0.635,0.6985 0.04233,0.550333 -1.037167,0.931333 -0.359833,0.508 L 62.484,86.487 62.23,86.592833 61.489167,87.249 l 0,0.211667 0.5715,0.846666 0.02117,0.1905 -0.529166,1.185334 0.1905,0.846666 -0.423334,0.783167 -1.524,1.947333 -0.08467,0.592667 -0.402167,0.486833 -0.254,0.973667 -0.656167,0.656167 -0.359833,0.6985 -0.254,0.296333 0,0.232833 -0.5715,0.359834 0.465667,0.465666 0.889,0.592667 0.592666,0.592667 0.5715,-0.550334 1.121834,-0.5715 0.6985,0.169334 0.8255,-0.232834 1.5875,0.3175 1.756833,0.6985 0.148167,0.486834 0.338666,0.508003 2.201334,0.16933 2.561166,0.381 0.8255,0.254 0.338667,-0.0423 1.058333,-0.97367 2.307167,0.02117 0.486833,-0.529167 0.381,-0.9525 1.143,-0.232833 0.910167,-0.465667 0.254,-0.9525 0.6985,-0.846667 0.275167,0 1.248833,0.465667 3.259667,0 0.275166,-0.211667 0.296334,-0.254 L 85.7885,95.0595 86.254167,94.107 86.8045,93.175667 86.868,93.0275 l 0,-0.867833 0.423333,-0.338667 0.508,-0.423333 -0.254,-0.719667 -0.592666,-0.9525 -0.804334,-0.486833 -0.0635,-0.783167 -0.359833,-0.232833 -0.211667,-0.127 0.148167,-0.508 0.02117,-0.148167 0.02117,-0.02117 0,0 L 85.979,87.249 86.2965,87.0585 85.555667,85.195833 85.492167,83.6295 84.814833,82.317167 84.7725,81.5975 l 0.465667,-1.629833 -0.254,-0.254 -1.3335,-0.3175 -0.02117,-0.359834 0.677333,-0.508 1.291167,-0.359833 1.0795,-0.867833 -0.275167,-0.423334 -0.3175,-0.04233 -0.635,0.4445 -0.8255,-0.338667 0,-0.1905 1.037167,-1.3335 0.296333,-0.8255 0.931334,-0.381 L 87.1855,73.279 87.354833,72.114833 88.794167,71.162333 90.678,70.993 l 0.169333,-0.381 -0.889,-0.783167 -1.100666,-0.296333 0.0635,-0.910167 1.185333,-1.375833 0.635,-1.0795 0.127,-0.613833 -2.794,-0.465667 -0.931333,0.296333 -0.804334,-0.275166 -0.762,-0.6985 -1.7145,-1.164167 -0.9525,-0.656167 -0.6985,-0.4445 -0.5715,-0.5715 0.211667,-0.423333 0.02117,-0.423333 -0.4445,-0.740834 -1.248834,-0.3175 z"
     id="path4677"
     inkscape:connector-curvature="0" />
  <path
     style="fill:none;stroke:none"
     d="m 80.179333,59.668833 -0.486833,0.08467 -1.397,1.058333 -0.381,0.08467 -0.762,0.910167 -0.529167,0.02117 L 75.819,61.0235 l -0.529167,0.402167 -0.0635,0.0635 -0.148166,0.105833 -1.100667,0.994833 -1.016,0.973667 -0.9525,0.1905 -0.846667,0.402167 -0.4445,0 -0.613833,-0.296334 -0.508,-0.783166 -0.381,0.02117 -1.016,0.613834 -0.973667,1.164166 -0.3175,0.127 -0.254,0.783167 -0.359833,-0.02117 -0.529167,-0.9525 -0.402166,0.02117 -1.905,1.905 -1.121834,0.04233 -0.804333,0.719667 0.423333,0.550333 0.04233,0.740834 -0.4445,0.613833 0.169333,0.486833 -0.254,0.4445 0.719667,0.529167 -0.973667,0.719667 0.0635,5.926666 0.232833,0.338667 0,0.3175 -0.550333,0.613833 -1.121833,0.804334 0.08467,0.359833 0.338667,0.338667 1.164167,0.402166 0.08467,0.232834 -0.232833,0.402166 0,0.508 1.0795,0.592667 0.9525,0.359833 0.338667,0.613834 0.635,0.6985 0.04233,0.550333 -1.037167,0.931333 -0.359833,0.508 L 62.484,86.487 62.23,86.592833 61.489167,87.249 l 0,0.211667 0.5715,0.846666 0.02117,0.1905 -0.529166,1.185334 0.1905,0.846666 -0.423334,0.783167 -1.524,1.947333 -0.08467,0.592667 -0.402167,0.486833 -0.254,0.973667 -0.656167,0.656167 -0.359833,0.6985 -0.254,0.296333 0,0.232833 -0.5715,0.359834 0.465667,0.465666 0.889,0.592667 0.592666,0.592667 0.5715,-0.550334 1.121834,-0.5715 0.6985,0.169334 0.8255,-0.232834 1.5875,0.3175 1.756833,0.6985 0.148167,0.486834 0.338666,0.508003 2.201334,0.16933 2.561166,0.381 0.8255,0.254 0.338667,-0.0423 1.058333,-0.97367 2.307167,0.02117 0.486833,-0.529167 0.381,-0.9525 1.143,-0.232833 0.910167,-0.465667 0.254,-0.9525 0.6985,-0.846667 0.275167,0 1.248833,0.465667 3.259667,0 0.275166,-0.211667 0.296334,-0.254 L 85.7885,95.0595 86.254167,94.107 86.8045,93.175667 86.868,93.0275 l 0,-0.867833 0.423333,-0.338667 0.508,-0.423333 -0.254,-0.719667 -0.592666,-0.9525 -0.804334,-0.486833 -0.0635,-0.783167 -0.359833,-0.232833 -0.211667,-0.127 0.148167,-0.508 0.02117,-0.148167 0.02117,-0.02117 0,0 L 85.979,87.249 86.2965,87.0585 85.555667,85.195833 85.492167,83.6295 84.814833,82.317167 84.7725,81.5975 l 0.465667,-1.629833 -0.254,-0.254 -1.3335,-0.3175 -0.02117,-0.359834 0.677333,-0.508 1.291167,-0.359833 1.0795,-0.867833 -0.275167,-0.423334 -0.3175,-0.04233 -0.635,0.4445 -0.8255,-0.338667 0,-0.1905 1.037167,-1.3335 0.296333,-0.8255 0.931334,-0.381 L 87.1855,73.279 87.354833,72.114833 88.794167,71.162333 90.678,70.993 l 0.169333,-0.381 -0.889,-0.783167 -1.100666,-0.296333 0.0635,-0.910167 1.185333,-1.375833 0.635,-1.0795 0.127,-0.613833 -2.794,-0.465667 -0.931333,0.296333 -0.804334,-0.275166 -0.762,-0.6985 -1.7145,-1.164167 -0.9525,-0.656167 -0.6985,-0.4445 -0.5715,-0.5715 0.211667,-0.423333 0.02117,-0.423333 -0.4445,-0.740834 -1.248834,-0.3175 z"
     id="path4679"
     inkscape:connector-curvature="0" />
  <text
     xml:space="preserve"
     style="font-style:normal;font-weight:normal;font-size:3.80465055px;line-height:125%;font-family:sans-serif;letter-spacing:0px;word-spacing:0px;fill:#000000;fill-opacity:1;stroke:none;stroke-width:1px;stroke-linecap:butt;stroke-linejoin:miter;stroke-opacity:1"
     x="73.327354"
     y="69.503082"
     id="text4147"
     sodipodi:linespacing="125%"
     transform="scale(0.84854454,1.1784885)"><tspan
       sodipodi:role="line"
       id="tspan4149"
       x="73.327354"
       y="69.503082">Breckockshire</tspan></text>
  <text
     transform="scale(0.84854454,1.1784885)"
     sodipodi:linespacing="125%"
     id="text4157"
     y="69.825806"
     x="73.551888"
     style="font-style:normal;font-weight:normal;font-size:3.80465055px;line-height:125%;font-family:sans-serif;letter-spacing:0px;word-spacing:0px;fill:#ffffff;fill-opacity:1;stroke:none;stroke-width:1px;stroke-linecap:butt;stroke-linejoin:miter;stroke-opacity:1"
     xml:space="preserve"><tspan
       y="69.825806"
       x="73.551888"
       id="tspan4159"
       sodipodi:role="line">Breckockshire</tspan></text>
</svg>
