<?xml version="1.0" encoding="UTF-8" standalone="no"?>
<svg
   xmlns:dc="http://purl.org/dc/elements/1.1/"
   xmlns:cc="http://creativecommons.org/ns#"
   xmlns:rdf="http://www.w3.org/1999/02/22-rdf-syntax-ns#"
   xmlns:svg="http://www.w3.org/2000/svg"
   xmlns="http://www.w3.org/2000/svg"
   xmlns:sodipodi="http://sodipodi.sourceforge.net/DTD/sodipodi-0.dtd"
   xmlns:inkscape="http://www.inkscape.org/namespaces/inkscape"
   version="1.0"
   width="96.668167mm"
   height="120.9675mm"
   id="svg4416"
   inkscape:version="0.91 r13725"
   viewBox="0 0 96.668167 120.9675"
   sodipodi:docname="counties_manual.svg">
  <metadata
     id="metadata4687">
    <rdf:RDF>
      <cc:Work
         rdf:about="">
        <dc:format>image/svg+xml</dc:format>
        <dc:type
           rdf:resource="http://purl.org/dc/dcmitype/StillImage" />
        <dc:title></dc:title>
      </cc:Work>
    </rdf:RDF>
  </metadata>
  <sodipodi:namedview
     pagecolor="#ffffff"
     bordercolor="#666666"
     borderopacity="1"
     objecttolerance="10"
     gridtolerance="10"
     guidetolerance="10"
     inkscape:pageopacity="0"
     inkscape:pageshadow="2"
     inkscape:window-width="1920"
     inkscape:window-height="1057"
     id="namedview4685"
     inkscape:document-units="mm"
     showgrid="false"
     inkscape:zoom="1.5573259"
     inkscape:cx="161.33319"
     inkscape:cy="243.22312"
     inkscape:window-x="-8"
     inkscape:window-y="-8"
     inkscape:window-maximized="1"
     inkscape:current-layer="svg4416" />
  <defs
     id="defs4418">
    <pattern
       id="WMFhbasepattern"
       patternUnits="userSpaceOnUse"
       width="6"
       height="6"
       x="0"
       y="0" />
  </defs>
  <path
     style="fill:#0087dc;fill-opacity:1;fill-rule:nonzero;stroke:none"
     d="M 85.111167,19.515667 84.8995,18.076333 84.328,17.547167 82.020833,17.949333 81.618667,17.674167 81.364667,16.933333 80.623833,15.9385 79.883,15.515167 l -0.550333,-0.4445 -0.635,-0.740834 -0.0635,-0.656166 0.148166,-0.338667 -0.465666,-0.402167 -0.127,-0.508 -0.486834,0.0635 -0.5715,0.4445 0.3175,0.211667 -0.508,0.402167 -0.254,0.04233 L 75.565,12.467167 75.226333,12.7 l -0.529166,-0.592667 -0.169334,0.02117 -0.529166,-0.02117 -0.529167,0 -0.211667,-0.0635 L 72.982667,11.811 72.771,11.684 l 0,-0.359833 0.338667,-0.8255 L 73.321333,9.8001667 73.152,9.1863333 70.950667,9.5673333 70.760167,9.7155 67.6275,9.6096667 66.505667,9.3133333 65.870667,8.3396667 65.3415,8.3185 65.151,9.0381667 64.5795,10.0965 l -0.232833,0.910167 -1.2065,1.375833 -0.381,1.524 -0.508,0.8255 0,0.381 0.635,0.529167 0.994833,0.423333 0.296333,0.6985 1.27,0.275167 0.656167,0.550333 -0.04233,0.359833 -0.4445,0.296334 -0.910167,-0.02117 -0.719667,0.508 0.359834,3.6195 0.4445,0.592667 0.994833,0.359833 1.2065,0.656167 0.232833,0.232833 0,0.5715 -0.5715,0.529167 -1.799166,1.735666 L 64.1985,28.1305 63.965667,28.829 63.415333,29.294667 62.1665,29.823833 61.425667,30.353 l -0.1905,0.402167 0.592666,0.804333 0.656167,0 1.862667,-1.185333 2.286,-0.359834 0.846666,-0.635 0.4445,-0.677333 0.804334,-0.254 0.359833,0.127 0.1905,1.418167 0.08467,0 0.762,0.169333 3.259666,0.3175 1.164167,-0.804333 0,-0.211667 -0.296333,-0.3175 -0.613834,-1.926167 0.02117,-0.338666 0.148167,-0.275167 0.4445,0.08467 0.804333,0.846666 0.423333,0.02117 0.381,-0.296333 0.550334,0.02117 0.486833,0.719667 0.105833,0.4445 0.486834,0.4445 0.613833,0.04233 0.889,0.8255 1.481667,0.867834 0.1905,0.529166 -0.465667,0.910167 -1.693333,0.04233 -0.592667,0.465667 0,0.338667 -0.508,0.783166 -0.973667,0.846667 -0.275166,1.248833 -0.232834,0.508 -0.211666,0.783167 0.148166,0.169333 0.105834,0.296334 -0.275167,0.359833 0.8255,0.719667 0.4445,0.08467 0.994833,0.804334 0.9525,1.27 0.656167,1.8415 0.0635,0.5715 0.508,0.338666 2.074333,0.04233 0.804334,-0.296334 1.651,-0.889 -0.296334,-0.613833 -0.0635,-0.4445 0.719667,-0.656167 -0.465667,-0.338666 -0.08467,-0.762 L 85.09,39.094833 85.492167,38.248167 86.148333,37.465 86.487,36.7665 l 0.04233,-0.740833 -0.08467,-0.529167 -0.5715,-0.740833 0,-0.254 0.423333,-0.254 0.402167,0.1905 0.359833,-0.1905 0.889,-1.397 0.8255,-0.232834 -1.0795,-0.804333 -0.02117,-0.381 0.613834,-0.613833 -0.04233,-0.359834 -1.016,-0.6985 -0.359833,-0.635 0.148167,-4.529666 -0.508,-0.910167 -0.127,-0.508 L 85.598,21.441833 85.471,20.3835 l -0.529167,-0.508 -0.04233,-0.359833 0.211667,0 z"
     id="path4421"
     inkscape:connector-curvature="0" />
  <path
     style="fill:none;stroke:none"
     d="M 85.111167,19.515667 84.8995,18.076333 84.328,17.547167 82.020833,17.949333 81.618667,17.674167 81.364667,16.933333 80.623833,15.9385 79.883,15.515167 l -0.550333,-0.4445 -0.635,-0.740834 -0.0635,-0.656166 0.148166,-0.338667 -0.465666,-0.402167 -0.127,-0.508 -0.486834,0.0635 -0.5715,0.4445 0.3175,0.211667 -0.508,0.402167 -0.254,0.04233 L 75.565,12.467167 75.226333,12.7 l -0.529166,-0.592667 -0.169334,0.02117 -0.529166,-0.02117 -0.529167,0 -0.211667,-0.0635 L 72.982667,11.811 72.771,11.684 l 0,-0.359833 0.338667,-0.8255 L 73.321333,9.8001667 73.152,9.1863333 70.950667,9.5673333 70.760167,9.7155 67.6275,9.6096667 66.505667,9.3133333 65.870667,8.3396667 65.3415,8.3185 65.151,9.0381667 64.5795,10.0965 l -0.232833,0.910167 -1.2065,1.375833 -0.381,1.524 -0.508,0.8255 0,0.381 0.635,0.529167 0.994833,0.423333 0.296333,0.6985 1.27,0.275167 0.656167,0.550333 -0.04233,0.359833 -0.4445,0.296334 -0.910167,-0.02117 -0.719667,0.508 0.359834,3.6195 0.4445,0.592667 0.994833,0.359833 1.2065,0.656167 0.232833,0.232833 0,0.5715 -0.5715,0.529167 -1.799166,1.735666 L 64.1985,28.1305 63.965667,28.829 63.415333,29.294667 62.1665,29.823833 61.425667,30.353 l -0.1905,0.402167 0.592666,0.804333 0.656167,0 1.862667,-1.185333 2.286,-0.359834 0.846666,-0.635 0.4445,-0.677333 0.804334,-0.254 0.359833,0.127 0.1905,1.418167 0.08467,0 0.762,0.169333 3.259666,0.3175 1.164167,-0.804333 0,-0.211667 -0.296333,-0.3175 -0.613834,-1.926167 0.02117,-0.338666 0.148167,-0.275167 0.4445,0.08467 0.804333,0.846666 0.423333,0.02117 0.381,-0.296333 0.550334,0.02117 0.486833,0.719667 0.105833,0.4445 0.486834,0.4445 0.613833,0.04233 0.889,0.8255 1.481667,0.867834 0.1905,0.529166 -0.465667,0.910167 -1.693333,0.04233 -0.592667,0.465667 0,0.338667 -0.508,0.783166 -0.973667,0.846667 -0.275166,1.248833 -0.232834,0.508 -0.211666,0.783167 0.148166,0.169333 0.105834,0.296334 -0.275167,0.359833 0.8255,0.719667 0.4445,0.08467 0.994833,0.804334 0.9525,1.27 0.656167,1.8415 0.0635,0.5715 0.508,0.338666 2.074333,0.04233 0.804334,-0.296334 1.651,-0.889 -0.296334,-0.613833 -0.0635,-0.4445 0.719667,-0.656167 -0.465667,-0.338666 -0.08467,-0.762 L 85.09,39.094833 85.492167,38.248167 86.148333,37.465 86.487,36.7665 l 0.04233,-0.740833 -0.08467,-0.529167 -0.5715,-0.740833 0,-0.254 0.423333,-0.254 0.402167,0.1905 0.359833,-0.1905 0.889,-1.397 0.8255,-0.232834 -1.0795,-0.804333 -0.02117,-0.381 0.613834,-0.613833 -0.04233,-0.359834 -1.016,-0.6985 -0.359833,-0.635 0.148167,-4.529666 -0.508,-0.910167 -0.127,-0.508 L 85.598,21.441833 85.471,20.3835 l -0.529167,-0.508 -0.04233,-0.359833 0.211667,0 z"
     id="path4423"
     inkscape:connector-curvature="0" />
  <path
     style="fill:#0087dc;fill-opacity:1;fill-rule:nonzero;stroke:none"
     d="m 78.570667,8.0645 -0.889,0.084667 -1.397,0.2751666 -1.735667,0.508 -1.397,0.254 0.169333,0.6138334 -0.211666,0.6985003 -0.338667,0.8255 0,0.359833 0.211667,0.127 0.275166,0.232833 0.211667,0.0635 0.529167,0 0.529166,0.02117 0.169334,-0.02117 L 75.226333,12.7 75.565,12.467167 76.686833,13.589 l 0.254,-0.04233 0.508,-0.402167 -0.3175,-0.211667 0.5715,-0.4445 0.486834,-0.0635 0.127,0.508 0.465666,0.402167 -0.148166,0.338667 0.0635,0.656166 0.635,0.740834 0.550333,0.4445 0.740833,0.423333 0.740834,0.994833 0.254,0.740834 0.402166,0.275166 2.307167,-0.402166 0.5715,0.529166 0.211667,1.439334 0.105833,0 0.740833,-0.3175 1.778,0.296333 0.529167,-0.5715 0.508,0.592667 0.296333,-0.486834 0.0635,-0.465666 -1.672166,-0.486834 -0.635,-0.508 0,-0.338666 0.8255,-0.762 -0.804334,-0.931334 -0.338666,-0.148166 -0.635,-0.423334 -2.307167,-1.481666 -0.973667,-0.423334 -0.529166,-0.635 0.02117,-0.486833 0.148167,-0.550333 0.296333,-0.3175 -2.8575,-1.989667 -1.100666,-1.016 z"
     id="path4425"
     inkscape:connector-curvature="0" />
  <path
     style="fill:none;stroke:none"
     d="m 78.570667,8.0645 -0.889,0.084667 -1.397,0.2751666 -1.735667,0.508 -1.397,0.254 0.169333,0.6138334 -0.211666,0.6985003 -0.338667,0.8255 0,0.359833 0.211667,0.127 0.275166,0.232833 0.211667,0.0635 0.529167,0 0.529166,0.02117 0.169334,-0.02117 L 75.226333,12.7 75.565,12.467167 76.686833,13.589 l 0.254,-0.04233 0.508,-0.402167 -0.3175,-0.211667 0.5715,-0.4445 0.486834,-0.0635 0.127,0.508 0.465666,0.402167 -0.148166,0.338667 0.0635,0.656166 0.635,0.740834 0.550333,0.4445 0.740833,0.423333 0.740834,0.994833 0.254,0.740834 0.402166,0.275166 2.307167,-0.402166 0.5715,0.529166 0.211667,1.439334 0.105833,0 0.740833,-0.3175 1.778,0.296333 0.529167,-0.5715 0.508,0.592667 0.296333,-0.486834 0.0635,-0.465666 -1.672166,-0.486834 -0.635,-0.508 0,-0.338666 0.8255,-0.762 -0.804334,-0.931334 -0.338666,-0.148166 -0.635,-0.423334 -2.307167,-1.481666 -0.973667,-0.423334 -0.529166,-0.635 0.02117,-0.486833 0.148167,-0.550333 0.296333,-0.3175 -2.8575,-1.989667 -1.100666,-1.016 z"
     id="path4427"
     inkscape:connector-curvature="0" />
  <path
     style="fill:#0087dc;fill-opacity:1;fill-rule:nonzero;stroke:none"
     d="m 60.282667,7.0696667 -1.058334,0.2116666 0.931334,1.1641667 0.0635,0.8043333 0.8255,0.9736667 -0.5715,0.296333 -0.994834,-0.402166 -3.1115,1.016 -3.937,1.7145 -1.164166,-0.169334 -0.3175,-0.359833 -1.121834,0.804333 -1.418166,0.275167 -0.762,1.375833 0.423333,0.508 0.867833,-0.783166 2.286,1.016 0.254,2.010833 0.910167,0.8255 0.338667,1.375833 0.105833,0.402167 0.423333,-0.381 0.4445,0.296333 0.04233,0.529167 1.2065,1.164167 0.254,0.846666 -0.846667,0.762 0.02117,0.656167 0.423333,1.651 1.820333,-0.423333 0.994834,0.105833 0.105833,0.02117 0.783167,0.719666 1.227666,2.772834 0.592667,0.656166 0.381,0.5715 0.529167,0.677334 0.1905,-0.402167 0.740833,-0.529167 1.248833,-0.529166 0.550334,-0.465667 0.232833,-0.6985 0.656167,-1.100667 1.799166,-1.735666 0.5715,-0.529167 0,-0.5715 L 66.9925,23.960667 65.786,23.3045 64.791167,22.944667 64.346667,22.352 l -0.359834,-3.6195 0.719667,-0.508 0.910167,0.02117 0.4445,-0.296334 0.04233,-0.359833 -0.656167,-0.550333 -1.27,-0.275167 -0.296333,-0.6985 -0.994833,-0.423333 -0.635,-0.529167 0,-0.381 0.508,-0.8255 0.381,-1.524 1.2065,-1.375833 L 64.5795,10.0965 65.151,9.0381667 65.3415,8.3185 63.373,8.2761667 60.981167,7.8105 60.282667,7.0696667 Z"
     id="path4429"
     inkscape:connector-curvature="0" />
  <path
     style="fill:none;stroke:none"
     d="m 60.282667,7.0696667 -1.058334,0.2116666 0.931334,1.1641667 0.0635,0.8043333 0.8255,0.9736667 -0.5715,0.296333 -0.994834,-0.402166 -3.1115,1.016 -3.937,1.7145 -1.164166,-0.169334 -0.3175,-0.359833 -1.121834,0.804333 -1.418166,0.275167 -0.762,1.375833 0.423333,0.508 0.867833,-0.783166 2.286,1.016 0.254,2.010833 0.910167,0.8255 0.338667,1.375833 0.105833,0.402167 0.423333,-0.381 0.4445,0.296333 0.04233,0.529167 1.2065,1.164167 0.254,0.846666 -0.846667,0.762 0.02117,0.656167 0.423333,1.651 1.820333,-0.423333 0.994834,0.105833 0.105833,0.02117 0.783167,0.719666 1.227666,2.772834 0.592667,0.656166 0.381,0.5715 0.529167,0.677334 0.1905,-0.402167 0.740833,-0.529167 1.248833,-0.529166 0.550334,-0.465667 0.232833,-0.6985 0.656167,-1.100667 1.799166,-1.735666 0.5715,-0.529167 0,-0.5715 L 66.9925,23.960667 65.786,23.3045 64.791167,22.944667 64.346667,22.352 l -0.359834,-3.6195 0.719667,-0.508 0.910167,0.02117 0.4445,-0.296334 0.04233,-0.359833 -0.656167,-0.550333 -1.27,-0.275167 -0.296333,-0.6985 -0.994833,-0.423333 -0.635,-0.529167 0,-0.381 0.508,-0.8255 0.381,-1.524 1.2065,-1.375833 L 64.5795,10.0965 65.151,9.0381667 65.3415,8.3185 63.373,8.2761667 60.981167,7.8105 60.282667,7.0696667 Z"
     id="path4431"
     inkscape:connector-curvature="0" />
  <path
     style="fill:#008142;fill-opacity:1;fill-rule:nonzero;stroke:none"
     d="m 75.797833,36.7665 -0.08467,0.3175 0.04233,0 0.04233,-0.3175 z"
     id="path4433"
     inkscape:connector-curvature="0" />
  <path
     style="fill:none;stroke:none"
     d="m 75.797833,36.7665 -0.08467,0.3175 0.04233,0 0.04233,-0.3175 z"
     id="path4435"
     inkscape:connector-curvature="0" />
  <path
     style="fill:#008142;fill-opacity:1;fill-rule:nonzero;stroke:none"
     d="m 76.432833,34.544 -0.02117,0 -0.275167,1.312333 -0.105833,0.254 L 76.1365,35.898667 76.432833,34.544 Z"
     id="path4437"
     inkscape:connector-curvature="0" />
  <path
     style="fill:none;stroke:none"
     d="m 76.432833,34.544 -0.02117,0 -0.275167,1.312333 -0.105833,0.254 L 76.1365,35.898667 76.432833,34.544 Z"
     id="path4439"
     inkscape:connector-curvature="0" />
  <path
     style="fill:#008142;fill-opacity:1;fill-rule:nonzero;stroke:none"
     d="m 77.893333,32.935333 -0.486833,0.762 -0.1905,0.169334 0.1905,-0.169334 0.486833,-0.740833 0,-0.02117 z"
     id="path4441"
     inkscape:connector-curvature="0" />
  <path
     style="fill:none;stroke:none"
     d="m 77.893333,32.935333 -0.486833,0.762 -0.1905,0.169334 0.1905,-0.169334 0.486833,-0.740833 0,-0.02117 z"
     id="path4443"
     inkscape:connector-curvature="0" />
  <path
     style="fill:#008142;fill-opacity:1;fill-rule:nonzero;stroke:none"
     d="M 78.507167,32.109833 78.464833,32.131 77.978,32.512 78.507167,32.109833 Z"
     id="path4445"
     inkscape:connector-curvature="0" />
  <path
     style="fill:none;stroke:none"
     d="M 78.507167,32.109833 78.464833,32.131 77.978,32.512 78.507167,32.109833 Z"
     id="path4447"
     inkscape:connector-curvature="0" />
  <path
     style="fill:#008142;fill-opacity:1;fill-rule:nonzero;stroke:none"
     d="m 80.645,31.1785 -0.486833,0.867833 -1.354667,0.0635 1.3335,-0.02117 0.508,-0.867834 0,-0.04233 z"
     id="path4449"
     inkscape:connector-curvature="0" />
  <path
     style="fill:none;stroke:none"
     d="m 80.645,31.1785 -0.486833,0.867833 -1.354667,0.0635 1.3335,-0.02117 0.508,-0.867834 0,-0.04233 z"
     id="path4451"
     inkscape:connector-curvature="0" />
  <path
     style="fill:#008142;fill-opacity:1;fill-rule:nonzero;stroke:none"
     d="m 76.983167,28.426833 0.529166,0.4445 0.02117,0 -0.550333,-0.4445 z"
     id="path4453"
     inkscape:connector-curvature="0" />
  <path
     style="fill:none;stroke:none"
     d="m 76.983167,28.426833 0.529166,0.4445 0.02117,0 -0.550333,-0.4445 z"
     id="path4455"
     inkscape:connector-curvature="0" />
  <path
     style="fill:#008142;fill-opacity:1;fill-rule:nonzero;stroke:none"
     d="m 76.813833,27.855333 0.08467,0.127 0.08467,0.423334 0,0.02117 -0.0635,-0.402166 -0.105834,-0.169334 z"
     id="path4457"
     inkscape:connector-curvature="0" />
  <path
     style="fill:none;stroke:none"
     d="m 76.813833,27.855333 0.08467,0.127 0.08467,0.423334 0,0.02117 -0.0635,-0.402166 -0.105834,-0.169334 z"
     id="path4459"
     inkscape:connector-curvature="0" />
  <path
     style="fill:#008142;fill-opacity:1;fill-rule:nonzero;stroke:none"
     d="m 76.2635,27.283833 0.127,0 0,-0.02117 -0.127,0.02117 z"
     id="path4461"
     inkscape:connector-curvature="0" />
  <path
     style="fill:none;stroke:none"
     d="m 76.2635,27.283833 0.127,0 0,-0.02117 -0.127,0.02117 z"
     id="path4463"
     inkscape:connector-curvature="0" />
  <path
     style="fill:#008142;fill-opacity:1;fill-rule:nonzero;stroke:none"
     d="m 75.205167,27.537833 0.254,0 0.211666,-0.148166 -0.232833,0.127 -0.232833,0.02117 z"
     id="path4465"
     inkscape:connector-curvature="0" />
  <path
     style="fill:none;stroke:none"
     d="m 75.205167,27.537833 0.254,0 0.211666,-0.148166 -0.232833,0.127 -0.232833,0.02117 z"
     id="path4467"
     inkscape:connector-curvature="0" />
  <path
     style="fill:#008142;fill-opacity:1;fill-rule:nonzero;stroke:none"
     d="m 73.787,26.67 0.04233,-0.0635 0.1905,0.04233 -0.1905,-0.04233 L 73.787,26.67 Z"
     id="path4469"
     inkscape:connector-curvature="0" />
  <path
     style="fill:none;stroke:none"
     d="m 73.787,26.67 0.04233,-0.0635 0.1905,0.04233 -0.1905,-0.04233 L 73.787,26.67 Z"
     id="path4471"
     inkscape:connector-curvature="0" />
  <path
     style="fill:#008142;fill-opacity:1;fill-rule:nonzero;stroke:none"
     d="m 74.019833,30.0355 0.529167,-0.359833 0,-0.211667 -0.254,-0.3175 -0.635,-1.989667 0,0.08467 0.635,1.926167 0.211667,0.275166 0.02117,0.211667 -0.508,0.381 z"
     id="path4473"
     inkscape:connector-curvature="0" />
  <path
     style="fill:none;stroke:none"
     d="m 74.019833,30.0355 0.529167,-0.359833 0,-0.211667 -0.254,-0.3175 -0.635,-1.989667 0,0.08467 0.635,1.926167 0.211667,0.275166 0.02117,0.211667 -0.508,0.381 z"
     id="path4475"
     inkscape:connector-curvature="0" />
  <path
     style="fill:#008142;fill-opacity:1;fill-rule:nonzero;stroke:none"
     d="m 73.173167,30.437667 0.169333,0.02117 0,0 -0.169333,-0.02117 z"
     id="path4477"
     inkscape:connector-curvature="0" />
  <path
     style="fill:none;stroke:none"
     d="m 73.173167,30.437667 0.169333,0.02117 0,0 -0.169333,-0.02117 z"
     id="path4479"
     inkscape:connector-curvature="0" />
  <path
     style="fill:#008142;fill-opacity:1;fill-rule:nonzero;stroke:none"
     d="M 69.215,29.358167 69.2785,29.972 69.469,30.014333 69.299667,29.972 69.215,29.358167 Z"
     id="path4481"
     inkscape:connector-curvature="0" />
  <path
     style="fill:none;stroke:none"
     d="M 69.215,29.358167 69.2785,29.972 69.469,30.014333 69.299667,29.972 69.215,29.358167 Z"
     id="path4483"
     inkscape:connector-curvature="0" />
  <path
     style="fill:#008142;fill-opacity:1;fill-rule:nonzero;stroke:none"
     d="m 66.124667,30.099 0.592666,-0.105833 0.740834,-0.635 0.508,-0.719667 -0.02117,0 -0.550333,0.762 -0.6985,0.592667 -0.5715,0.105833 z"
     id="path4485"
     inkscape:connector-curvature="0" />
  <path
     style="fill:none;stroke:none"
     d="m 66.124667,30.099 0.592666,-0.105833 0.740834,-0.635 0.508,-0.719667 -0.02117,0 -0.550333,0.762 -0.6985,0.592667 -0.5715,0.105833 z"
     id="path4487"
     inkscape:connector-curvature="0" />
  <path
     style="fill:#008142;fill-opacity:1;fill-rule:nonzero;stroke:none"
     d="m 61.065833,30.564667 0.0635,0.105833 0.211667,0.254 -0.275167,-0.359833 z"
     id="path4489"
     inkscape:connector-curvature="0" />
  <path
     style="fill:none;stroke:none"
     d="m 61.065833,30.564667 0.0635,0.105833 0.211667,0.254 -0.275167,-0.359833 z"
     id="path4491"
     inkscape:connector-curvature="0" />
  <path
     style="fill:#008142;fill-opacity:1;fill-rule:nonzero;stroke:none"
     d="m 59.69,28.850167 0,0.02117 L 59.838167,29.0195 59.69,28.850167 Z"
     id="path4493"
     inkscape:connector-curvature="0" />
  <path
     style="fill:none;stroke:none"
     d="m 59.69,28.850167 0,0.02117 L 59.838167,29.0195 59.69,28.850167 Z"
     id="path4495"
     inkscape:connector-curvature="0" />
  <path
     style="fill:#008142;fill-opacity:1;fill-rule:nonzero;stroke:none"
     d="m 58.1025,25.7175 0.381,0.359833 0.148167,0.3175 -0.127,-0.3175 L 58.1025,25.7175 Z"
     id="path4497"
     inkscape:connector-curvature="0" />
  <path
     style="fill:none;stroke:none"
     d="m 58.1025,25.7175 0.381,0.359833 0.148167,0.3175 -0.127,-0.3175 L 58.1025,25.7175 Z"
     id="path4499"
     inkscape:connector-curvature="0" />
  <path
     style="fill:#008142;fill-opacity:1;fill-rule:nonzero;stroke:none"
     d="m 54.885167,25.632833 -1.016,0.381 -1.439334,0.994834 -0.423333,0.105833 -1.037167,0.804333 -0.381,0.465667 0,1.058333 0.529167,0.529167 -0.783167,0.6985 -0.762,0.592667 0.02117,0 0.169333,0.719666 L 50.313167,31.877 53.086,30.691667 53.932667,31.030333 52.937833,31.877 52.027667,32.490833 51.308,32.787167 51.138667,33.633833 49.000833,33.739667 48.535167,33.528 48.641,34.6075 l 0.6985,1.693333 0.02117,0.592667 -0.1905,0.4445 0.127,0.804333 -0.5715,0.635 L 48.4505,38.227 l -0.423333,0.423333 1.608666,4.360334 0.592667,1.735666 1.439333,-0.465666 2.0955,0 L 53.5305,44.45 l -0.550333,0.1905 -2.053167,1.27 -0.338667,-0.338667 -0.127,0.486834 -1.164166,1.227666 -1.248834,2.709334 0,0.5715 L 49.022,51.096333 48.641,51.308 48.535167,51.519667 48.26,51.6255 l 0.08467,0.6985 0.867833,2.243667 0.846667,0.3175 2.4765,-0.04233 0.9525,-0.1905 0.4445,0.381 0.8255,-0.889 0.359833,-0.8255 0.8255,0.0635 2.497667,-1.291166 0.635,-0.5715 L 59.287833,49.5935 59.012667,48.514 58.9915,48.133 59.711167,47.646167 61.4045,47.8155 63.161333,47.349833 64.1985,47.625 l 0.402167,-0.1905 0.275166,-0.635 1.9685,0.169333 1.4605,-0.508 0.04233,-0.613833 0.550333,-0.973667 -0.783167,-4.275666 -0.02117,-0.762 0.6985,-1.397 2.434166,-0.211667 1.058334,-0.550333 0.359833,-0.931334 1.2065,0.677334 1.037167,-0.08467 0.8255,-0.254 0.08467,-0.3175 0.04233,-0.211667 0.1905,-0.4445 0.105833,-0.254 0.275167,-1.312333 0.02117,0 0,-0.02117 0.783167,-0.656166 0.1905,-0.169334 0.486833,-0.762 0,-0.381 0.08467,-0.04233 0.486833,-0.402167 0.04233,0 0.02117,0 0.275167,0 1.354667,-0.0635 0.486833,-0.867833 -0.127,-0.550333 -1.545167,-0.889 -0.8255,-0.783167 -0.592666,-0.0635 -0.02117,-0.02117 -0.02117,0 -0.529166,-0.4445 0,-0.02117 -0.08467,-0.423334 -0.08467,-0.127 -0.423333,-0.5715 -0.127,0 -0.402167,0 -0.1905,0.105834 -0.211666,0.148166 -0.254,0 -0.1905,0 -0.719667,-0.8255 -0.275167,-0.0635 -0.1905,-0.04233 -0.04233,0.0635 -0.127,0.254 0,0.232833 0.635,1.989667 0.254,0.3175 0,0.211667 -0.529167,0.359833 -0.635,0.423333 -0.04233,0 0,0 -0.169333,-0.02117 -3.048,-0.254 L 69.469,30.014333 69.2785,29.972 69.215,29.358167 69.088,28.575 l -0.359833,-0.105833 -0.762,0.169333 -0.508,0.719667 -0.740834,0.635 -0.592666,0.105833 -1.8415,0.3175 -1.756834,1.164167 -0.719666,-0.02117 -0.465667,-0.635 -0.211667,-0.254 -0.0635,-0.105833 -0.232833,-0.296334 -0.550333,-0.8255 -0.4445,-0.4445 -0.148167,-0.127 0,-0.02117 -0.02117,0 -1.037166,-2.455334 -0.148167,-0.3175 -0.381,-0.359833 -0.423333,-0.402167 -1.0795,-0.04233 -1.418167,0.275167 -0.296333,0.08467 z"
     id="path4501"
     inkscape:connector-curvature="0" />
  <path
     style="fill:none;stroke:none"
     d="m 54.885167,25.632833 -1.016,0.381 -1.439334,0.994834 -0.423333,0.105833 -1.037167,0.804333 -0.381,0.465667 0,1.058333 0.529167,0.529167 -0.783167,0.6985 -0.762,0.592667 0.02117,0 0.169333,0.719666 L 50.313167,31.877 53.086,30.691667 53.932667,31.030333 52.937833,31.877 52.027667,32.490833 51.308,32.787167 51.138667,33.633833 49.000833,33.739667 48.535167,33.528 48.641,34.6075 l 0.6985,1.693333 0.02117,0.592667 -0.1905,0.4445 0.127,0.804333 -0.5715,0.635 L 48.4505,38.227 l -0.423333,0.423333 1.608666,4.360334 0.592667,1.735666 1.439333,-0.465666 2.0955,0 L 53.5305,44.45 l -0.550333,0.1905 -2.053167,1.27 -0.338667,-0.338667 -0.127,0.486834 -1.164166,1.227666 -1.248834,2.709334 0,0.5715 L 49.022,51.096333 48.641,51.308 48.535167,51.519667 48.26,51.6255 l 0.08467,0.6985 0.867833,2.243667 0.846667,0.3175 2.4765,-0.04233 0.9525,-0.1905 0.4445,0.381 0.8255,-0.889 0.359833,-0.8255 0.8255,0.0635 2.497667,-1.291166 0.635,-0.5715 L 59.287833,49.5935 59.012667,48.514 58.9915,48.133 59.711167,47.646167 61.4045,47.8155 63.161333,47.349833 64.1985,47.625 l 0.402167,-0.1905 0.275166,-0.635 1.9685,0.169333 1.4605,-0.508 0.04233,-0.613833 0.550333,-0.973667 -0.783167,-4.275666 -0.02117,-0.762 0.6985,-1.397 2.434166,-0.211667 1.058334,-0.550333 0.359833,-0.931334 1.2065,0.677334 1.037167,-0.08467 0.8255,-0.254 0.08467,-0.3175 0.04233,-0.211667 0.1905,-0.4445 0.105833,-0.254 0.275167,-1.312333 0.02117,0 0,-0.02117 0.783167,-0.656166 0.1905,-0.169334 0.486833,-0.762 0,-0.381 0.08467,-0.04233 0.486833,-0.402167 0.04233,0 0.02117,0 0.275167,0 1.354667,-0.0635 0.486833,-0.867833 -0.127,-0.550333 -1.545167,-0.889 -0.8255,-0.783167 -0.592666,-0.0635 -0.02117,-0.02117 -0.02117,0 -0.529166,-0.4445 0,-0.02117 -0.08467,-0.423334 -0.08467,-0.127 -0.423333,-0.5715 -0.127,0 -0.402167,0 -0.1905,0.105834 -0.211666,0.148166 -0.254,0 -0.1905,0 -0.719667,-0.8255 -0.275167,-0.0635 -0.1905,-0.04233 -0.04233,0.0635 -0.127,0.254 0,0.232833 0.635,1.989667 0.254,0.3175 0,0.211667 -0.529167,0.359833 -0.635,0.423333 -0.04233,0 0,0 -0.169333,-0.02117 -3.048,-0.254 L 69.469,30.014333 69.2785,29.972 69.215,29.358167 69.088,28.575 l -0.359833,-0.105833 -0.762,0.169333 -0.508,0.719667 -0.740834,0.635 -0.592666,0.105833 -1.8415,0.3175 -1.756834,1.164167 -0.719666,-0.02117 -0.465667,-0.635 -0.211667,-0.254 -0.0635,-0.105833 -0.232833,-0.296334 -0.550333,-0.8255 -0.4445,-0.4445 -0.148167,-0.127 0,-0.02117 -0.02117,0 -1.037166,-2.455334 -0.148167,-0.3175 -0.381,-0.359833 -0.423333,-0.402167 -1.0795,-0.04233 -1.418167,0.275167 -0.296333,0.08467 z"
     id="path4503"
     inkscape:connector-curvature="0" />
  <path
     style="fill:#008142;fill-opacity:1;fill-rule:nonzero;stroke:none"
     d="M 48.895,14.456833 48.090667,15.24 47.625,14.753167 l -2.391833,2.370666 -0.677334,0.508 -1.312333,1.185334 -0.105833,0.994833 -0.529167,0.4445 -0.275167,-0.846667 -0.592666,0 0.296333,1.7145 -0.656167,2.286 -1.905,1.693334 -1.693333,1.121833 -0.592667,0.486833 -0.867833,1.016 -0.719667,0.5715 L 35.1155,29.21 l -1.375833,1.037167 -1.862667,0.08467 -0.4445,-0.465666 -0.232833,0.5715 -1.248834,1.2065 -0.275166,0.613833 -0.3175,-0.148167 -0.4445,0 -0.656167,0.8255 0,0.296334 -0.867833,-0.3175 -0.423334,0.127 L 25.9715,34.036 25.548167,34.459333 24.616833,34.925 l 0.169334,1.524 -1.3335,1.629833 0.613833,0.550334 0.402167,-0.592667 0.508,-0.423333 0.3175,0.3175 1.164166,-0.423334 0.635,0.232834 L 29.337,36.322 l 2.54,0.719667 0.508,0.529166 -0.127,0.508 0.275167,0.359834 0.465666,0 0.550334,-0.719667 0.677333,0.254 -0.275167,-0.9525 0.254,-0.719667 0.402167,-0.529166 0.4445,-0.127 -0.423333,-0.613834 0.931333,-0.910166 1.799167,-0.381 -0.0635,-0.783167 0.994833,-0.592667 2.921,0.275167 0.4445,-1.037167 1.9685,0.127 0.9525,-0.211666 1.418167,0.08467 1.693333,0.740834 1.375833,-1.100667 0.508,0.02117 0.762,-0.592667 0.783167,-0.6985 -0.529167,-0.529167 0,-1.058333 0.381,-0.465667 1.037167,-0.804333 0.423333,-0.105833 1.439334,-0.994834 1.016,-0.381 -0.08467,0.02117 -0.4445,-1.629833 0,-0.635 0.867833,-0.783167 -0.3175,-0.867833 -1.121833,-1.121834 -0.08467,-0.635 L 53.1495,19.706167 52.832,20.066 52.662667,19.536833 52.3875,18.330333 51.477333,17.526 51.181,15.536333 l -2.286,-1.0795 z"
     id="path4505"
     inkscape:connector-curvature="0" />
  <path
     style="fill:none;stroke:none"
     d="M 48.895,14.456833 48.090667,15.24 47.625,14.753167 l -2.391833,2.370666 -0.677334,0.508 -1.312333,1.185334 -0.105833,0.994833 -0.529167,0.4445 -0.275167,-0.846667 -0.592666,0 0.296333,1.7145 -0.656167,2.286 -1.905,1.693334 -1.693333,1.121833 -0.592667,0.486833 -0.867833,1.016 -0.719667,0.5715 L 35.1155,29.21 l -1.375833,1.037167 -1.862667,0.08467 -0.4445,-0.465666 -0.232833,0.5715 -1.248834,1.2065 -0.275166,0.613833 -0.3175,-0.148167 -0.4445,0 -0.656167,0.8255 0,0.296334 -0.867833,-0.3175 -0.423334,0.127 L 25.9715,34.036 25.548167,34.459333 24.616833,34.925 l 0.169334,1.524 -1.3335,1.629833 0.613833,0.550334 0.402167,-0.592667 0.508,-0.423333 0.3175,0.3175 1.164166,-0.423334 0.635,0.232834 L 29.337,36.322 l 2.54,0.719667 0.508,0.529166 -0.127,0.508 0.275167,0.359834 0.465666,0 0.550334,-0.719667 0.677333,0.254 -0.275167,-0.9525 0.254,-0.719667 0.402167,-0.529166 0.4445,-0.127 -0.423333,-0.613834 0.931333,-0.910166 1.799167,-0.381 -0.0635,-0.783167 0.994833,-0.592667 2.921,0.275167 0.4445,-1.037167 1.9685,0.127 0.9525,-0.211666 1.418167,0.08467 1.693333,0.740834 1.375833,-1.100667 0.508,0.02117 0.762,-0.592667 0.783167,-0.6985 -0.529167,-0.529167 0,-1.058333 0.381,-0.465667 1.037167,-0.804333 0.423333,-0.105833 1.439334,-0.994834 1.016,-0.381 -0.08467,0.02117 -0.4445,-1.629833 0,-0.635 0.867833,-0.783167 -0.3175,-0.867833 -1.121833,-1.121834 -0.08467,-0.635 L 53.1495,19.706167 52.832,20.066 52.662667,19.536833 52.3875,18.330333 51.477333,17.526 51.181,15.536333 l -2.286,-1.0795 z"
     id="path4507"
     inkscape:connector-curvature="0" />
  <path
     style="fill:#ffbb00;fill-opacity:1;fill-rule:nonzero;stroke:none"
     d="M 64.854667,65.362667 64.410167,64.748833 62.6745,63.0555 62.251167,62.145333 60.579,60.536667 l -0.02117,-0.486834 0.973667,-1.100666 0.148167,-0.889 -0.635,-0.254 -0.465667,0 -0.867833,0.508 -0.04233,0.762 L 59.224333,58.928 58.42,58.314167 l -0.02117,-3.175 -0.719666,-0.3175 -1.756834,-0.486834 -0.550333,-0.02117 -0.846667,0.169333 -0.127,0.02117 -0.465666,0.465666 -0.127,0.423334 -1.058334,0.127 -1.100666,0.677333 -1.227667,0.402167 -0.0635,-0.02117 -0.910167,-1.100667 0,1.185334 L 49.233667,58.6105 48.683333,60.430833 48.133,62.6745 47.328667,64.897 46.609,67.098333 45.825833,68.961 45.72,69.236167 l -1.058333,1.651 -1.375834,1.143 -0.465666,0.402166 -2.688167,1.5875 -1.143,0.635 -0.465667,-0.254 -0.4445,0.719667 -1.7145,1.756833 L 35.941,76.581 l -0.910167,0.867833 -1.651,1.143 -0.846666,-0.232833 -1.058334,-0.656167 -1.397,0.402167 -5.588,0.783167 0.04233,0.6985 0.508,0.592666 0.02117,0.613834 -0.508,0.381 0.08467,0.423333 1.375833,0.508 2.6035,0.254 2.074334,0.465667 2.032,0.08467 0.381,-0.3175 0.423333,0.381 0.275167,-0.275166 3.513666,0.338666 0.550334,-0.232833 0.254,0 0.973666,0.550333 1.693334,-1.058333 0.402166,0.04233 0.02117,0.4445 0.338667,0.423334 0.719666,-0.338667 0.550334,0.04233 0.931333,-0.656166 3.069167,-1.439334 0.613833,-0.232833 0.592667,-0.486833 0.254,-0.04233 0.656166,0.529167 0.254,0 0.148167,-0.02117 0.508,-0.529166 0.423333,-0.02117 1.524,-1.3335 0.508,-0.08467 1.439334,0.867834 0.148166,0 1.4605,-0.846667 0.1905,0 2.899834,1.629833 0.402166,0.423334 0.635,-0.423334 0.0635,-0.402166 1.524,-1.185334 0.508,-0.4445 -0.02117,-0.3175 -0.254,-0.402166 -0.0635,-5.926667 0.9525,-0.719667 -0.656167,-0.508 0.211667,-0.359833 -0.211667,-0.486833 0.4445,-0.762 0.0635,-0.613834 -0.465667,-0.550333 0.762,-0.783167 1.143,0 0.889,-0.910166 0.486834,-0.508 z"
     id="path4509"
     inkscape:connector-curvature="0" />
  <path
     style="fill:none;stroke:none"
     d="M 64.854667,65.362667 64.410167,64.748833 62.6745,63.0555 62.251167,62.145333 60.579,60.536667 l -0.02117,-0.486834 0.973667,-1.100666 0.148167,-0.889 -0.635,-0.254 -0.465667,0 -0.867833,0.508 -0.04233,0.762 L 59.224333,58.928 58.42,58.314167 l -0.02117,-3.175 -0.719666,-0.3175 -1.756834,-0.486834 -0.550333,-0.02117 -0.846667,0.169333 -0.127,0.02117 -0.465666,0.465666 -0.127,0.423334 -1.058334,0.127 -1.100666,0.677333 -1.227667,0.402167 -0.0635,-0.02117 -0.910167,-1.100667 0,1.185334 L 49.233667,58.6105 48.683333,60.430833 48.133,62.6745 47.328667,64.897 46.609,67.098333 45.825833,68.961 45.72,69.236167 l -1.058333,1.651 -1.375834,1.143 -0.465666,0.402166 -2.688167,1.5875 -1.143,0.635 -0.465667,-0.254 -0.4445,0.719667 -1.7145,1.756833 L 35.941,76.581 l -0.910167,0.867833 -1.651,1.143 -0.846666,-0.232833 -1.058334,-0.656167 -1.397,0.402167 -5.588,0.783167 0.04233,0.6985 0.508,0.592666 0.02117,0.613834 -0.508,0.381 0.08467,0.423333 1.375833,0.508 2.6035,0.254 2.074334,0.465667 2.032,0.08467 0.381,-0.3175 0.423333,0.381 0.275167,-0.275166 3.513666,0.338666 0.550334,-0.232833 0.254,0 0.973666,0.550333 1.693334,-1.058333 0.402166,0.04233 0.02117,0.4445 0.338667,0.423334 0.719666,-0.338667 0.550334,0.04233 0.931333,-0.656166 3.069167,-1.439334 0.613833,-0.232833 0.592667,-0.486833 0.254,-0.04233 0.656166,0.529167 0.254,0 0.148167,-0.02117 0.508,-0.529166 0.423333,-0.02117 1.524,-1.3335 0.508,-0.08467 1.439334,0.867834 0.148166,0 1.4605,-0.846667 0.1905,0 2.899834,1.629833 0.402166,0.423334 0.635,-0.423334 0.0635,-0.402166 1.524,-1.185334 0.508,-0.4445 -0.02117,-0.3175 -0.254,-0.402166 -0.0635,-5.926667 0.9525,-0.719667 -0.656167,-0.508 0.211667,-0.359833 -0.211667,-0.486833 0.4445,-0.762 0.0635,-0.613834 -0.465667,-0.550333 0.762,-0.783167 1.143,0 0.889,-0.910166 0.486834,-0.508 z"
     id="path4511"
     inkscape:connector-curvature="0" />
  <path
     style="fill:#ffbb00;fill-opacity:1;fill-rule:nonzero;stroke:none"
     d="m 72.7075,36.808833 -0.465667,0.931334 -0.973666,0.5715 -2.434167,0.254 -0.719667,1.3335 0.02117,0.719666 0.740833,4.3815 -0.529166,0.889 -0.127,0.6985 -1.397,0.423334 -1.9685,-0.211667 -0.254,0.635 -0.359834,0.1905 -1.143,-0.296333 -1.7145,0.4445 -1.651,-0.127 -0.740833,0.529166 0,0.296334 0.3175,1.185333 -0.275167,1.820333 -0.529166,0.529167 -2.582334,1.375833 -0.889,-0.04233 -0.275166,0.8255 -0.359834,0.338667 0.127,-0.02117 0.846667,-0.169333 0.550333,0.02117 1.756834,0.486834 0.719666,0.3175 0.02117,3.175 0.804333,0.613833 0.4445,0.148167 0.04233,-0.762 0.867833,-0.508 0.465667,0 0.635,0.254 -0.148167,0.889 -0.973667,1.100666 0.02117,0.486834 1.672167,1.608666 0.423333,0.910167 1.735667,1.693333 0.4445,0.613834 0.508,-0.550334 0.402166,0 0.529167,0.973667 0.359833,0.02117 0.275167,-0.867834 0.359833,-0.0635 0.973667,-1.227666 1.100667,-0.592667 0.359833,0.105833 0.338667,0.6985 0.550333,0.254 0.550333,0.0635 1.016,-0.508 0.783167,-0.08467 1.164167,-1.185334 1.037166,-0.889 0.127,-0.04233 0.508,-0.465667 0.846667,0.804334 0.4445,0.04233 0.889,-1.016 0.381,-0.08467 1.354667,-0.994833 0.5715,-0.08467 0.5715,0.127 0.5715,0.211667 0.211666,0.381 0.1905,0.3175 0.9525,-1.2065 0.677334,-0.127 0.867833,-0.4445 0.6985,-0.254 2.582333,0.127 0.211667,-0.3175 -0.254,-0.656167 -0.02117,-0.3175 0.381,-0.402166 0.381,0.3175 0.211667,-0.02117 0.211667,-0.381 0.127,-0.762 -0.719667,-1.185333 -0.656167,0.08467 -1.143,0.8255 -0.02117,0.529167 -0.613834,0.508 -0.550333,0.211667 -0.783167,-0.846667 0.740834,-0.423333 0.02117,-0.5715 -0.402166,-0.5715 0,-0.359834 L 85.217,53.932667 85.640333,53.848 85.979,53.678667 l 0,-0.486834 0.8255,-1.947333 0,-0.783167 L 86.635167,50.2285 87.376,49.678167 87.545333,48.895 l 0.254,-0.719667 0.613834,-1.27 0.486833,-0.6985 1.248833,0.0635 0.465667,0.465667 0.465667,-0.4445 0,-0.3175 -0.677334,-0.8255 -0.762,-0.338667 -0.550333,0.105834 -0.381,-0.635 -0.486833,-0.169334 -0.656167,-0.3175 -0.529167,-0.931333 -0.359833,0 -0.4445,0.381 -0.529167,0.02117 -0.3175,-0.127 -0.169333,-0.423334 -0.232833,-0.275166 -0.381,-0.08467 -1.756834,1.016 -0.656166,0.211667 L 80.179333,43.561 79.6925,43.264667 79.5655,42.4815 l -0.656167,-1.735667 -0.9525,-1.227666 -0.973666,-0.740834 -0.381,-0.148166 L 75.692,37.888333 76.0095,37.570833 75.713167,37.105167 74.676,37.380333 73.892833,37.4015 72.7075,36.808833 Z"
     id="path4513"
     inkscape:connector-curvature="0" />
  <path
     style="fill:none;stroke:none"
     d="m 72.7075,36.808833 -0.465667,0.931334 -0.973666,0.5715 -2.434167,0.254 -0.719667,1.3335 0.02117,0.719666 0.740833,4.3815 -0.529166,0.889 -0.127,0.6985 -1.397,0.423334 -1.9685,-0.211667 -0.254,0.635 -0.359834,0.1905 -1.143,-0.296333 -1.7145,0.4445 -1.651,-0.127 -0.740833,0.529166 0,0.296334 0.3175,1.185333 -0.275167,1.820333 -0.529166,0.529167 -2.582334,1.375833 -0.889,-0.04233 -0.275166,0.8255 -0.359834,0.338667 0.127,-0.02117 0.846667,-0.169333 0.550333,0.02117 1.756834,0.486834 0.719666,0.3175 0.02117,3.175 0.804333,0.613833 0.4445,0.148167 0.04233,-0.762 0.867833,-0.508 0.465667,0 0.635,0.254 -0.148167,0.889 -0.973667,1.100666 0.02117,0.486834 1.672167,1.608666 0.423333,0.910167 1.735667,1.693333 0.4445,0.613834 0.508,-0.550334 0.402166,0 0.529167,0.973667 0.359833,0.02117 0.275167,-0.867834 0.359833,-0.0635 0.973667,-1.227666 1.100667,-0.592667 0.359833,0.105833 0.338667,0.6985 0.550333,0.254 0.550333,0.0635 1.016,-0.508 0.783167,-0.08467 1.164167,-1.185334 1.037166,-0.889 0.127,-0.04233 0.508,-0.465667 0.846667,0.804334 0.4445,0.04233 0.889,-1.016 0.381,-0.08467 1.354667,-0.994833 0.5715,-0.08467 0.5715,0.127 0.5715,0.211667 0.211666,0.381 0.1905,0.3175 0.9525,-1.2065 0.677334,-0.127 0.867833,-0.4445 0.6985,-0.254 2.582333,0.127 0.211667,-0.3175 -0.254,-0.656167 -0.02117,-0.3175 0.381,-0.402166 0.381,0.3175 0.211667,-0.02117 0.211667,-0.381 0.127,-0.762 -0.719667,-1.185333 -0.656167,0.08467 -1.143,0.8255 -0.02117,0.529167 -0.613834,0.508 -0.550333,0.211667 -0.783167,-0.846667 0.740834,-0.423333 0.02117,-0.5715 -0.402166,-0.5715 0,-0.359834 L 85.217,53.932667 85.640333,53.848 85.979,53.678667 l 0,-0.486834 0.8255,-1.947333 0,-0.783167 L 86.635167,50.2285 87.376,49.678167 87.545333,48.895 l 0.254,-0.719667 0.613834,-1.27 0.486833,-0.6985 1.248833,0.0635 0.465667,0.465667 0.465667,-0.4445 0,-0.3175 -0.677334,-0.8255 -0.762,-0.338667 -0.550333,0.105834 -0.381,-0.635 -0.486833,-0.169334 -0.656167,-0.3175 -0.529167,-0.931333 -0.359833,0 -0.4445,0.381 -0.529167,0.02117 -0.3175,-0.127 -0.169333,-0.423334 -0.232833,-0.275166 -0.381,-0.08467 -1.756834,1.016 -0.656166,0.211667 L 80.179333,43.561 79.6925,43.264667 79.5655,42.4815 l -0.656167,-1.735667 -0.9525,-1.227666 -0.973666,-0.740834 -0.381,-0.148166 L 75.692,37.888333 76.0095,37.570833 75.713167,37.105167 74.676,37.380333 73.892833,37.4015 72.7075,36.808833 Z"
     id="path4515"
     inkscape:connector-curvature="0" />
  <path
     style="fill:#dc241f;fill-opacity:1;fill-rule:nonzero;stroke:none"
     d="m 86.973833,24.5745 -0.08467,3.577167 0,1.058333 0.296333,0.5715 1.058333,0.677333 0,0.338667 -0.613833,0.6985 0.02117,0.275167 1.0795,0.867833 0.762,-0.275167 0.8255,-0.529166 0.232833,-0.656167 1.185333,-0.402167 0.127,-0.783166 0.402167,-0.381 1.439333,-0.867834 0.1905,-0.4445 0.6985,-0.508 0.486834,-0.08467 L 95.758,27.178 95.906167,26.67 96.2025,26.394833 96.668167,26.077333 96.139,24.087667 95.715667,22.6695 l -0.5715,-1.121833 0.04233,-0.3175 0.5715,-0.8255 -0.359833,-0.169334 -1.397,-0.254 -1.291167,-0.5715 -0.02117,-0.254 L 92.0115,18.415 l 0.127,-0.4445 0.973667,0.02117 L 94.212833,17.4625 94.234,17.102667 93.831833,16.234833 91.969167,14.351 90.402833,13.292667 89.048167,12.6365 l -0.6985,0 -0.0635,0.275167 -0.635,0.465666 -0.338667,0.359834 -1.8415,-0.8255 -2.963333,-1.883834 -0.359834,0.486834 -0.148166,0.613833 0,0.338667 0.656166,0.592666 0.973667,0.423334 2.561167,1.672166 0.4445,0.296334 0.275166,0.127 0.740834,0.846666 -0.8255,0.762 0,0.275167 0.550333,0.613833 1.672167,0.465667 0.02117,0.465667 -0.127,0.211666 -0.148166,0.254 L 88.519,19.2405 l -0.254,-0.296333 -0.592667,0.508 -1.778,-0.232834 -0.635,0.232834 -0.381,0.0635 0.02117,0.338666 0.550333,0.465667 0.211667,1.2065 0.719667,1.5875 0.148166,0.656167 0.275167,0.486833 0.169333,0.3175 z"
     id="path4517"
     inkscape:connector-curvature="0" />
  <path
     style="fill:none;stroke:none"
     d="m 86.973833,24.5745 -0.08467,3.577167 0,1.058333 0.296333,0.5715 1.058333,0.677333 0,0.338667 -0.613833,0.6985 0.02117,0.275167 1.0795,0.867833 0.762,-0.275167 0.8255,-0.529166 0.232833,-0.656167 1.185333,-0.402167 0.127,-0.783166 0.402167,-0.381 1.439333,-0.867834 0.1905,-0.4445 0.6985,-0.508 0.486834,-0.08467 L 95.758,27.178 95.906167,26.67 96.2025,26.394833 96.668167,26.077333 96.139,24.087667 95.715667,22.6695 l -0.5715,-1.121833 0.04233,-0.3175 0.5715,-0.8255 -0.359833,-0.169334 -1.397,-0.254 -1.291167,-0.5715 -0.02117,-0.254 L 92.0115,18.415 l 0.127,-0.4445 0.973667,0.02117 L 94.212833,17.4625 94.234,17.102667 93.831833,16.234833 91.969167,14.351 90.402833,13.292667 89.048167,12.6365 l -0.6985,0 -0.0635,0.275167 -0.635,0.465666 -0.338667,0.359834 -1.8415,-0.8255 -2.963333,-1.883834 -0.359834,0.486834 -0.148166,0.613833 0,0.338667 0.656166,0.592666 0.973667,0.423334 2.561167,1.672166 0.4445,0.296334 0.275166,0.127 0.740834,0.846666 -0.8255,0.762 0,0.275167 0.550333,0.613833 1.672167,0.465667 0.02117,0.465667 -0.127,0.211666 -0.148166,0.254 L 88.519,19.2405 l -0.254,-0.296333 -0.592667,0.508 -1.778,-0.232834 -0.635,0.232834 -0.381,0.0635 0.02117,0.338666 0.550333,0.465667 0.211667,1.2065 0.719667,1.5875 0.148166,0.656167 0.275167,0.486833 0.169333,0.3175 z"
     id="path4519"
     inkscape:connector-curvature="0" />
  <path
     style="fill:#0087dc;fill-opacity:1;fill-rule:nonzero;stroke:none"
     d="M 24.595667,96.096667 24.108833,95.1865 23.135167,94.699667 22.394333,94.9325 l -0.846666,-0.148167 -0.804334,0.4445 -0.656166,-0.254 -0.550334,-0.423333 0,-0.3175 0.677334,-0.613833 0.275166,0.486833 0.338667,0.04233 0.4445,-0.338666 0.762,-0.1905 0.529167,-0.402167 -0.232834,-0.550333 -0.5715,-0.550334 -0.6985,-0.04233 -0.1905,-0.423333 0.8255,-0.804334 0.169334,-0.719666 0.635,-0.169334 1.375833,-0.846666 1.058333,0.254 1.608667,0.105833 0.508,-0.740833 1.185333,-0.169334 0.9525,0.232834 L 30.882167,87.122 33.528,86.9315 33.506833,85.449833 32.4485,85.0265 32.025167,84.455 l -0.677334,-0.423333 -0.592666,-0.762 0,-0.465667 -2.2225,-0.486833 -2.54,-0.232834 -1.375834,-0.508 L 24.511,81.110667 23.876,80.602667 23.579667,80.115833 22.0345,79.756 l -0.529167,0.338667 0.105834,0.275166 0.04233,0.105834 -0.740833,0.846666 -1.143,0.4445 -1.016,0.02117 -0.592667,0.550333 0,0.4445 L 18.6055,83.439 18.245667,83.904667 17.7165,83.735333 16.742833,84.031667 16.150167,83.163833 15.748,83.333167 15.261167,84.1375 13.081,84.624333 l -0.169333,-0.846666 0,-0.423334 -1.121834,0.254 L 9.9906667,83.142667 9.398,83.439 l 0.0635,0.296333 -0.1905,0.677334 0.2963333,0.592666 -1.143,0.867834 L 7.366,85.703833 6.4558333,86.952667 4.5085,87.164333 3.1326667,87.989833 1.4393333,88.688333 0.52916667,88.4555 0.762,89.048167 0.59266667,89.619667 0,90.551 l 0.0635,0.465667 0.67733333,0 L 1.524,90.466333 l 1.524,0.105834 1.6933333,0.296333 0.1905,0.4445 1.4393334,0.04233 1.1006666,1.672167 0.084667,0.296333 -0.1693333,0.4445 0.7831666,1.608667 0.021167,0.550333 -0.2116667,0.3175 0,1.693334 -0.5715,0.423333 L 6.6251667,98.128667 5.2493333,98.530833 4.1486667,99.525667 3.7888333,99.5045 3.3655,100.47817 l -1.143,0.3175 1.2276667,0.46566 0.635,0.86784 0.1481666,0.52916 0.381,-0.254 0.2116667,-0.23283 0,-0.21167 -0.4445,-0.65616 0.3386667,-0.3175 0.5503333,0.127 1.1853333,0.0635 0.6561667,-0.48684 0.2116667,0.74084 0.4656666,0 0.635,-0.21167 1.9261667,0.40217 1.248833,0.127 0.381,-0.16934 0.740834,0.381 -0.635,0.3175 0,0.35984 1.100666,0.0423 0.169334,0.27517 -0.211667,0.4445 -1.629833,-0.0635 -0.529167,-0.508 -0.931333,-0.4445 -0.8255003,0 0.2751666,0.35983 -0.635,0.42333 -0.508,-0.0423 -0.9101666,-0.762 -0.508,0.0423 -0.4233334,0.3175 0.6138334,0.381 0.762,0.10584 0.6561666,1.27 0.1905,0.35983 -0.021167,0.1905 -0.4021667,0.48683 -0.021167,0.381 2.1378337,0.55034 1.481666,0.29633 1.143,0.508 0.1905,0.21167 0.783167,-0.61384 0.740833,-0.0212 -0.211666,-0.3175 0.02117,-0.46567 1.799167,-1.3335 1.354667,-0.55033 1.227666,0.27516 0.148167,0.0423 0.889,-0.4445 0.804333,0.23283 0.9525,-1.62983 L 21.59,102.27733 21.568833,101.5365 23.071667,100.54167 23.622,100.30883 23.5585,100.076 24.13,99.441 24.426333,99.06 24.595667,98.4885 24.384,98.382667 l -0.402167,-0.254 0.296334,-0.5715 L 24.235833,97.3455 23.749,96.752833 24.595667,96.096667 Z"
     id="path4521"
     inkscape:connector-curvature="0" />
  <path
     style="fill:none;stroke:none"
     d="M 24.595667,96.096667 24.108833,95.1865 23.135167,94.699667 22.394333,94.9325 l -0.846666,-0.148167 -0.804334,0.4445 -0.656166,-0.254 -0.550334,-0.423333 0,-0.3175 0.677334,-0.613833 0.275166,0.486833 0.338667,0.04233 0.4445,-0.338666 0.762,-0.1905 0.529167,-0.402167 -0.232834,-0.550333 -0.5715,-0.550334 -0.6985,-0.04233 -0.1905,-0.423333 0.8255,-0.804334 0.169334,-0.719666 0.635,-0.169334 1.375833,-0.846666 1.058333,0.254 1.608667,0.105833 0.508,-0.740833 1.185333,-0.169334 0.9525,0.232834 L 30.882167,87.122 33.528,86.9315 33.506833,85.449833 32.4485,85.0265 32.025167,84.455 l -0.677334,-0.423333 -0.592666,-0.762 0,-0.465667 -2.2225,-0.486833 -2.54,-0.232834 -1.375834,-0.508 L 24.511,81.110667 23.876,80.602667 23.579667,80.115833 22.0345,79.756 l -0.529167,0.338667 0.105834,0.275166 0.04233,0.105834 -0.740833,0.846666 -1.143,0.4445 -1.016,0.02117 -0.592667,0.550333 0,0.4445 L 18.6055,83.439 18.245667,83.904667 17.7165,83.735333 16.742833,84.031667 16.150167,83.163833 15.748,83.333167 15.261167,84.1375 13.081,84.624333 l -0.169333,-0.846666 0,-0.423334 -1.121834,0.254 L 9.9906667,83.142667 9.398,83.439 l 0.0635,0.296333 -0.1905,0.677334 0.2963333,0.592666 -1.143,0.867834 L 7.366,85.703833 6.4558333,86.952667 4.5085,87.164333 3.1326667,87.989833 1.4393333,88.688333 0.52916667,88.4555 0.762,89.048167 0.59266667,89.619667 0,90.551 l 0.0635,0.465667 0.67733333,0 L 1.524,90.466333 l 1.524,0.105834 1.6933333,0.296333 0.1905,0.4445 1.4393334,0.04233 1.1006666,1.672167 0.084667,0.296333 -0.1693333,0.4445 0.7831666,1.608667 0.021167,0.550333 -0.2116667,0.3175 0,1.693334 -0.5715,0.423333 L 6.6251667,98.128667 5.2493333,98.530833 4.1486667,99.525667 3.7888333,99.5045 3.3655,100.47817 l -1.143,0.3175 1.2276667,0.46566 0.635,0.86784 0.1481666,0.52916 0.381,-0.254 0.2116667,-0.23283 0,-0.21167 -0.4445,-0.65616 0.3386667,-0.3175 0.5503333,0.127 1.1853333,0.0635 0.6561667,-0.48684 0.2116667,0.74084 0.4656666,0 0.635,-0.21167 1.9261667,0.40217 1.248833,0.127 0.381,-0.16934 0.740834,0.381 -0.635,0.3175 0,0.35984 1.100666,0.0423 0.169334,0.27517 -0.211667,0.4445 -1.629833,-0.0635 -0.529167,-0.508 -0.931333,-0.4445 -0.8255003,0 0.2751666,0.35983 -0.635,0.42333 -0.508,-0.0423 -0.9101666,-0.762 -0.508,0.0423 -0.4233334,0.3175 0.6138334,0.381 0.762,0.10584 0.6561666,1.27 0.1905,0.35983 -0.021167,0.1905 -0.4021667,0.48683 -0.021167,0.381 2.1378337,0.55034 1.481666,0.29633 1.143,0.508 0.1905,0.21167 0.783167,-0.61384 0.740833,-0.0212 -0.211666,-0.3175 0.02117,-0.46567 1.799167,-1.3335 1.354667,-0.55033 1.227666,0.27516 0.148167,0.0423 0.889,-0.4445 0.804333,0.23283 0.9525,-1.62983 L 21.59,102.27733 21.568833,101.5365 23.071667,100.54167 23.622,100.30883 23.5585,100.076 24.13,99.441 24.426333,99.06 24.595667,98.4885 24.384,98.382667 l -0.402167,-0.254 0.296334,-0.5715 L 24.235833,97.3455 23.749,96.752833 24.595667,96.096667 Z"
     id="path4523"
     inkscape:connector-curvature="0" />
  <path
     style="fill:#008142;fill-opacity:1;fill-rule:nonzero;stroke:none"
     d="m 28.215167,100.203 4.5085,0.0423 -0.0635,-0.402163 -0.6985,-0.740834 -0.02117,-0.275166 0.8255,-1.397 0.127,-0.359834 0.296333,0 0.635,0.592667 -0.402166,0.486833 0.232833,0.359834 1.248833,0.719666 0.613834,0 0.740833,-0.4445 1.248833,-1.545166 0.211667,0.02117 0.127,1.248834 -0.423333,0.3175 0.338666,0.889 0.550334,0.338663 0.910166,0.10584 0.105834,0.59266 0.529166,-0.0635 0.613834,0.59267 0.592666,-0.52917 0.148167,0 0.508,0.33867 0.804333,-0.61383 -0.635,-0.635003 0.486834,-0.4445 0.127,-0.296334 1.164166,-1.418166 0.232834,0.04233 0.232833,0.232833 1.756833,-1.164166 0.359834,-0.02117 0.6985,1.735667 2.836333,-1.058334 0.3175,-0.656166 2.137833,0.275166 0.508,-0.3175 0.783167,0.3175 0.4445,0 0.719667,-0.677333 2.307166,0.105833 0.8255,0.4445 0.254,-0.296333 L 58.42,95.9485 59.033833,95.3135 59.309,94.339833 59.69,93.853 l 0.08467,-0.592667 1.608666,-2.032 0.381,-0.677333 -0.254,-0.9525 0.5715,-0.973667 0,-0.275166 -0.592666,-0.931334 0,-0.169333 0.846666,-0.804333 0.127,0 0.4445,-0.296334 0.338667,-0.613833 1.058333,-0.889 0,-0.486833 -0.677333,-0.8255 -0.275167,-0.550334 -1.248833,-0.465666 -0.867833,-0.508 0,-0.465667 0.296333,-0.550333 -0.04233,-0.105834 -1.2065,-0.338666 -0.359834,-0.423334 -0.0635,-0.359833 -0.3175,0.275167 L 59.436,80.306333 58.843333,80.666167 58.42,80.179333 l -2.921,-1.608666 -1.481667,0.846666 -0.359833,0 -1.312333,-0.846666 -0.5715,0.127 -1.5875,1.354666 -0.381,0 -0.529167,0.529167 -0.3175,0.02117 -0.635,-0.508 -0.3175,0.02117 -0.550333,0.508 -0.804334,0.254 -2.8575,1.397 -0.973666,0.635 -0.486834,0 -0.719666,0.254 L 41.275,82.804 l -0.148167,-0.486833 -0.3175,0 -0.508,0.275166 -1.2065,0.783167 -0.931333,-0.5715 -0.423333,0.02117 -0.465667,0.1905 -3.471333,-0.338667 -0.296334,0.338667 -0.402166,-0.423334 -0.3175,0.254 -2.032,-0.02117 0,0.381 0.550333,0.8255 0.719667,0.465666 0.423333,0.529167 0.994833,0.4445 0.0635,1.4605 L 30.861,87.122 29.167667,88.773 28.172833,88.519 26.9875,88.730667 26.585333,89.513833 24.8285,89.365667 23.876,89.0905 22.436667,89.9795 21.844,90.127667 21.6535,90.8685 20.870333,91.651667 21.082,92.075 l 0.740833,0.105833 0.5715,0.5715 0.211667,0.423334 -0.550333,0.423333 -0.783167,0.232833 -0.423333,0.296334 -0.296334,0.02117 -0.338666,-0.4445 -0.677334,0.529167 -0.02117,0.275167 0.508,0.423333 0.740833,0.3175 0.783167,-0.4445 0.846666,0.105833 0.783167,-0.211666 0.9525,0.486833 0.486833,0.889 -0.867833,0.6985 0.486833,0.5715 0,0.211667 -0.296333,0.5715 0.359833,0.275166 0.296334,0.0635 -0.1905,0.592667 -0.846667,0.99483 0.08467,0.254 4.572,-0.10583 z"
     id="path4525"
     inkscape:connector-curvature="0" />
  <path
     style="fill:none;stroke:none"
     d="m 28.215167,100.203 4.5085,0.0423 -0.0635,-0.402163 -0.6985,-0.740834 -0.02117,-0.275166 0.8255,-1.397 0.127,-0.359834 0.296333,0 0.635,0.592667 -0.402166,0.486833 0.232833,0.359834 1.248833,0.719666 0.613834,0 0.740833,-0.4445 1.248833,-1.545166 0.211667,0.02117 0.127,1.248834 -0.423333,0.3175 0.338666,0.889 0.550334,0.338663 0.910166,0.10584 0.105834,0.59266 0.529166,-0.0635 0.613834,0.59267 0.592666,-0.52917 0.148167,0 0.508,0.33867 0.804333,-0.61383 -0.635,-0.635003 0.486834,-0.4445 0.127,-0.296334 1.164166,-1.418166 0.232834,0.04233 0.232833,0.232833 1.756833,-1.164166 0.359834,-0.02117 0.6985,1.735667 2.836333,-1.058334 0.3175,-0.656166 2.137833,0.275166 0.508,-0.3175 0.783167,0.3175 0.4445,0 0.719667,-0.677333 2.307166,0.105833 0.8255,0.4445 0.254,-0.296333 L 58.42,95.9485 59.033833,95.3135 59.309,94.339833 59.69,93.853 l 0.08467,-0.592667 1.608666,-2.032 0.381,-0.677333 -0.254,-0.9525 0.5715,-0.973667 0,-0.275166 -0.592666,-0.931334 0,-0.169333 0.846666,-0.804333 0.127,0 0.4445,-0.296334 0.338667,-0.613833 1.058333,-0.889 0,-0.486833 -0.677333,-0.8255 -0.275167,-0.550334 -1.248833,-0.465666 -0.867833,-0.508 0,-0.465667 0.296333,-0.550333 -0.04233,-0.105834 -1.2065,-0.338666 -0.359834,-0.423334 -0.0635,-0.359833 -0.3175,0.275167 L 59.436,80.306333 58.843333,80.666167 58.42,80.179333 l -2.921,-1.608666 -1.481667,0.846666 -0.359833,0 -1.312333,-0.846666 -0.5715,0.127 -1.5875,1.354666 -0.381,0 -0.529167,0.529167 -0.3175,0.02117 -0.635,-0.508 -0.3175,0.02117 -0.550333,0.508 -0.804334,0.254 -2.8575,1.397 -0.973666,0.635 -0.486834,0 -0.719666,0.254 L 41.275,82.804 l -0.148167,-0.486833 -0.3175,0 -0.508,0.275166 -1.2065,0.783167 -0.931333,-0.5715 -0.423333,0.02117 -0.465667,0.1905 -3.471333,-0.338667 -0.296334,0.338667 -0.402166,-0.423334 -0.3175,0.254 -2.032,-0.02117 0,0.381 0.550333,0.8255 0.719667,0.465666 0.423333,0.529167 0.994833,0.4445 0.0635,1.4605 L 30.861,87.122 29.167667,88.773 28.172833,88.519 26.9875,88.730667 26.585333,89.513833 24.8285,89.365667 23.876,89.0905 22.436667,89.9795 21.844,90.127667 21.6535,90.8685 20.870333,91.651667 21.082,92.075 l 0.740833,0.105833 0.5715,0.5715 0.211667,0.423334 -0.550333,0.423333 -0.783167,0.232833 -0.423333,0.296334 -0.296334,0.02117 -0.338666,-0.4445 -0.677334,0.529167 -0.02117,0.275167 0.508,0.423333 0.740833,0.3175 0.783167,-0.4445 0.846666,0.105833 0.783167,-0.211666 0.9525,0.486833 0.486833,0.889 -0.867833,0.6985 0.486833,0.5715 0,0.211667 -0.296333,0.5715 0.359833,0.275166 0.296334,0.0635 -0.1905,0.592667 -0.846667,0.99483 0.08467,0.254 4.572,-0.10583 z"
     id="path4527"
     inkscape:connector-curvature="0" />
  <path
     style="fill:#0087dc;fill-opacity:1;fill-rule:nonzero;stroke:none"
     d="m 82.1055,116.05683 0.359833,-0.0635 0,0.0212 0,-0.0212 -0.359833,0.0635 z"
     id="path4529"
     inkscape:connector-curvature="0" />
  <path
     style="fill:none;stroke:none"
     d="m 82.1055,116.05683 0.359833,-0.0635 0,0.0212 0,-0.0212 -0.359833,0.0635 z"
     id="path4531"
     inkscape:connector-curvature="0" />
  <path
     style="fill:#0087dc;fill-opacity:1;fill-rule:nonzero;stroke:none"
     d="m 83.439,111.42133 -0.02117,2.30717 -0.402166,0.29633 -0.508,0 0.0635,0.0212 0,0.29633 0.846666,0.8255 0.656167,-0.21166 0.486833,-0.71967 0,-0.254 -0.1905,-0.1905 0.402167,-0.762 0,-0.48683 0.359833,-0.21167 0.296334,0.0635 -1.566334,-0.71967 -0.423333,-0.254 z"
     id="path4533"
     inkscape:connector-curvature="0" />
  <path
     style="fill:none;stroke:none"
     d="m 83.439,111.42133 -0.02117,2.30717 -0.402166,0.29633 -0.508,0 0.0635,0.0212 0,0.29633 0.846666,0.8255 0.656167,-0.21166 0.486833,-0.71967 0,-0.254 -0.1905,-0.1905 0.402167,-0.762 0,-0.48683 0.359833,-0.21167 0.296334,0.0635 -1.566334,-0.71967 -0.423333,-0.254 z"
     id="path4535"
     inkscape:connector-curvature="0" />
  <path
     style="fill:#0087dc;fill-opacity:1;fill-rule:nonzero;stroke:none"
     d="m 83.163833,111.252 -2.159,1.03717 -0.783166,1.016 0,0.74083 -0.550334,0.59267 0.381,1.31233 0.211667,0.381 0.02117,0 -0.232834,-0.40217 -0.359833,-1.31233 0.5715,-0.5715 0.5715,-0.0212 1.016,-0.27516 0.656167,0.27516 0.508,0 0.402166,-0.29633 0.02117,-2.30717 -0.275167,-0.16933 z"
     id="path4537"
     inkscape:connector-curvature="0" />
  <path
     style="fill:none;stroke:none"
     d="m 83.163833,111.252 -2.159,1.03717 -0.783166,1.016 0,0.74083 -0.550334,0.59267 0.381,1.31233 0.211667,0.381 0.02117,0 -0.232834,-0.40217 -0.359833,-1.31233 0.5715,-0.5715 0.5715,-0.0212 1.016,-0.27516 0.656167,0.27516 0.508,0 0.402166,-0.29633 0.02117,-2.30717 -0.275167,-0.16933 z"
     id="path4539"
     inkscape:connector-curvature="0" />
  <path
     style="fill:#0087dc;fill-opacity:1;fill-rule:nonzero;stroke:none"
     d="m 87.016167,106.19317 -0.359834,0.0212 -0.296333,0.3175 -0.08467,0.16934 0.486834,0.635 -0.1905,0.254 0.508,0.508 -0.931334,0.59266 -0.275166,-0.0212 -0.296334,-0.254 -0.846666,0.84666 -0.677334,0.74084 -2.561166,0.9525 -0.740834,0.16933 -1.566333,1.31233 0,0.84667 -0.613833,0.127 -0.550334,-0.99483 -0.9525,-0.42334 -0.592666,0.42334 -1.312334,0.27516 -0.508,0.52917 0.254,1.35467 0,0.65616 -0.592666,0.48684 -0.529167,-0.8255 -0.3175,0 -0.211667,0.40216 -0.486833,1.651 0.04233,0.29634 0.359834,0.67733 0.635,0.59267 -0.846667,0.91016 0.275167,1.3335 3.725333,0.21167 0.529167,-0.55033 0.296333,0 0.232833,0.21166 0.423334,-0.27516 0.254,-0.127 -0.169334,-0.3175 0.3175,-0.29634 0.613834,0.23284 0.169333,0.59266 0.762,-0.4445 0.5715,-0.40216 2.328333,0.254 0.254,-0.0847 0.0635,-1.651 0.359834,-1.12183 -1.058334,-0.42334 -0.4445,-0.55033 0,-0.0212 -0.359833,0.0635 -1.799167,0.29634 -0.02117,-0.0212 -0.02117,0 -0.211667,-0.381 -0.381,-1.31233 0.550334,-0.59267 0,-0.74083 0.783166,-1.016 2.159,-1.03717 0.6985,0.42333 1.566334,0.71967 0.127,0.0423 0.9525,0.86784 0.381,0.127 0,0 0.1905,0.0635 0.719666,-0.635 0.8255,-0.8255 1.164167,-0.61384 -0.613833,-0.889 -0.973667,-1.016 -0.0635,-0.97366 0.402167,-0.97367 0.275166,-0.3175 -1.799166,-1.05833 z"
     id="path4541"
     inkscape:connector-curvature="0" />
  <path
     style="fill:none;stroke:none"
     d="m 87.016167,106.19317 -0.359834,0.0212 -0.296333,0.3175 -0.08467,0.16934 0.486834,0.635 -0.1905,0.254 0.508,0.508 -0.931334,0.59266 -0.275166,-0.0212 -0.296334,-0.254 -0.846666,0.84666 -0.677334,0.74084 -2.561166,0.9525 -0.740834,0.16933 -1.566333,1.31233 0,0.84667 -0.613833,0.127 -0.550334,-0.99483 -0.9525,-0.42334 -0.592666,0.42334 -1.312334,0.27516 -0.508,0.52917 0.254,1.35467 0,0.65616 -0.592666,0.48684 -0.529167,-0.8255 -0.3175,0 -0.211667,0.40216 -0.486833,1.651 0.04233,0.29634 0.359834,0.67733 0.635,0.59267 -0.846667,0.91016 0.275167,1.3335 3.725333,0.21167 0.529167,-0.55033 0.296333,0 0.232833,0.21166 0.423334,-0.27516 0.254,-0.127 -0.169334,-0.3175 0.3175,-0.29634 0.613834,0.23284 0.169333,0.59266 0.762,-0.4445 0.5715,-0.40216 2.328333,0.254 0.254,-0.0847 0.0635,-1.651 0.359834,-1.12183 -1.058334,-0.42334 -0.4445,-0.55033 0,-0.0212 -0.359833,0.0635 -1.799167,0.29634 -0.02117,-0.0212 -0.02117,0 -0.211667,-0.381 -0.381,-1.31233 0.550334,-0.59267 0,-0.74083 0.783166,-1.016 2.159,-1.03717 0.6985,0.42333 1.566334,0.71967 0.127,0.0423 0.9525,0.86784 0.381,0.127 0,0 0.1905,0.0635 0.719666,-0.635 0.8255,-0.8255 1.164167,-0.61384 -0.613833,-0.889 -0.973667,-1.016 -0.0635,-0.97366 0.402167,-0.97367 0.275166,-0.3175 -1.799166,-1.05833 z"
     id="path4543"
     inkscape:connector-curvature="0" />
  <path
     style="fill:#dc241f;fill-opacity:1;fill-rule:nonzero;stroke:none"
     d="m 82.4865,115.99333 0.1905,-0.48683 0.423333,-0.127 0.275167,-0.254 -0.783167,-0.71967 0,-0.33866 -0.740833,-0.29634 -1.629833,0.29634 -0.550334,0.5715 0.381,1.37583 0.232834,0.33867 2.201333,-0.35984 0,0 z"
     id="path4545"
     inkscape:connector-curvature="0" />
  <path
     style="fill:none;stroke:none"
     d="m 82.4865,115.99333 0.1905,-0.48683 0.423333,-0.127 0.275167,-0.254 -0.783167,-0.71967 0,-0.33866 -0.740833,-0.29634 -1.629833,0.29634 -0.550334,0.5715 0.381,1.37583 0.232834,0.33867 2.201333,-0.35984 0,0 z"
     id="path4547"
     inkscape:connector-curvature="0" />
  <path
     style="fill:#dc241f;fill-opacity:1;fill-rule:nonzero;stroke:none"
     d="m 85.217,112.31033 -0.423333,0.23284 0,0.4445 -0.465667,0.80433 0.211667,0.16933 0,0.33867 -0.381,0.5715 -0.719667,0.29633 -0.0635,-0.0423 -0.275167,0.254 -0.423333,0.127 -0.1905,0.48683 0.423333,0.55034 1.037167,0.42333 0.656167,-0.635 -0.04233,-0.46567 -0.127,-0.381 0.02117,-0.23283 2.624667,-1.79917 -0.550334,-0.0847 -0.973666,-0.91017 -0.338667,-0.14817 z"
     id="path4549"
     inkscape:connector-curvature="0" />
  <path
     style="fill:none;stroke:none"
     d="m 85.217,112.31033 -0.423333,0.23284 0,0.4445 -0.465667,0.80433 0.211667,0.16933 0,0.33867 -0.381,0.5715 -0.719667,0.29633 -0.0635,-0.0423 -0.275167,0.254 -0.423333,0.127 -0.1905,0.48683 0.423333,0.55034 1.037167,0.42333 0.656167,-0.635 -0.04233,-0.46567 -0.127,-0.381 0.02117,-0.23283 2.624667,-1.79917 -0.550334,-0.0847 -0.973666,-0.91017 -0.338667,-0.14817 z"
     id="path4551"
     inkscape:connector-curvature="0" />
  <path
     style="fill:#dc241f;fill-opacity:1;fill-rule:nonzero;stroke:none"
     d="M 54.440667,96.625833 54.6735,96.393 l -0.02117,0 -0.211666,0.232833 z"
     id="path4553"
     inkscape:connector-curvature="0" />
  <path
     style="fill:none;stroke:none"
     d="M 54.440667,96.625833 54.6735,96.393 l -0.02117,0 -0.211666,0.232833 z"
     id="path4555"
     inkscape:connector-curvature="0" />
  <path
     style="fill:#dc241f;fill-opacity:1;fill-rule:nonzero;stroke:none"
     d="m 46.0375,96.774 0.1905,0 0,0 -0.1905,0 z"
     id="path4557"
     inkscape:connector-curvature="0" />
  <path
     style="fill:none;stroke:none"
     d="m 46.0375,96.774 0.1905,0 0,0 -0.1905,0 z"
     id="path4559"
     inkscape:connector-curvature="0" />
  <path
     style="fill:#dc241f;fill-opacity:1;fill-rule:nonzero;stroke:none"
     d="m 44.111333,97.959333 0.02117,0.02117 1.735667,-1.185333 -0.04233,0 -1.7145,1.164166 z"
     id="path4561"
     inkscape:connector-curvature="0" />
  <path
     style="fill:none;stroke:none"
     d="m 44.111333,97.959333 0.02117,0.02117 1.735667,-1.185333 -0.04233,0 -1.7145,1.164166 z"
     id="path4563"
     inkscape:connector-curvature="0" />
  <path
     style="fill:#dc241f;fill-opacity:1;fill-rule:nonzero;stroke:none"
     d="m 43.899667,97.7265 0.02117,0 -0.02117,0 0,0 z"
     id="path4565"
     inkscape:connector-curvature="0" />
  <path
     style="fill:none;stroke:none"
     d="m 43.899667,97.7265 0.02117,0 -0.02117,0 0,0 z"
     id="path4567"
     inkscape:connector-curvature="0" />
  <path
     style="fill:#dc241f;fill-opacity:1;fill-rule:nonzero;stroke:none"
     d="m 42.947167,98.530833 0.275166,-0.296333 0.402167,-0.550333 0,0 -0.677333,0.846666 z"
     id="path4569"
     inkscape:connector-curvature="0" />
  <path
     style="fill:none;stroke:none"
     d="m 42.947167,98.530833 0.275166,-0.296333 0.402167,-0.550333 0,0 -0.677333,0.846666 z"
     id="path4571"
     inkscape:connector-curvature="0" />
  <path
     style="fill:#dc241f;fill-opacity:1;fill-rule:nonzero;stroke:none"
     d="m 42.545,100.49933 0,-0.0212 -0.296333,-0.29634 0.296333,0.3175 z"
     id="path4573"
     inkscape:connector-curvature="0" />
  <path
     style="fill:none;stroke:none"
     d="m 42.545,100.49933 0,-0.0212 -0.296333,-0.29634 0.296333,0.3175 z"
     id="path4575"
     inkscape:connector-curvature="0" />
  <path
     style="fill:#dc241f;fill-opacity:1;fill-rule:nonzero;stroke:none"
     d="M 78.782333,105.11367 77.978,104.267 l -1.27,-0.61383 -0.677333,-0.61384 -0.486834,-0.889 -0.8255,-0.33866 -0.169333,-0.889 -0.994833,-0.994837 0,-0.105833 -0.359834,0 -1.058333,0.97367 -0.338667,0.0423 -0.465666,-0.14817 -0.169334,0.6985 -0.381,1.12184 -0.635,0.40216 1.693334,0.86784 1.354666,0.6985 0.529167,0.93133 0.804333,1.35467 0.5715,0.635 0.402167,-0.46567 3.3655,-0.27517 -0.232833,-1.03716 -0.04233,-0.23284 0.1905,-0.27516 z"
     id="path4577"
     inkscape:connector-curvature="0" />
  <path
     style="fill:none;stroke:none"
     d="M 78.782333,105.11367 77.978,104.267 l -1.27,-0.61383 -0.677333,-0.61384 -0.486834,-0.889 -0.8255,-0.33866 -0.169333,-0.889 -0.994833,-0.994837 0,-0.105833 -0.359834,0 -1.058333,0.97367 -0.338667,0.0423 -0.465666,-0.14817 -0.169334,0.6985 -0.381,1.12184 -0.635,0.40216 1.693334,0.86784 1.354666,0.6985 0.529167,0.93133 0.804333,1.35467 0.5715,0.635 0.402167,-0.46567 3.3655,-0.27517 -0.232833,-1.03716 -0.04233,-0.23284 0.1905,-0.27516 z"
     id="path4579"
     inkscape:connector-curvature="0" />
  <path
     style="fill:#dc241f;fill-opacity:1;fill-rule:nonzero;stroke:none"
     d="M 78.464833,97.493667 78.4225,97.663 l -0.910167,0.465667 -1.143,0.232833 -0.381,0.9525 -0.486833,0.529167 -1.947333,-0.02117 0,0.105833 0.994833,0.994837 0.169333,0.889 0.8255,0.33866 0.486834,0.889 0.677333,0.61384 1.27,0.61383 0.804333,0.84667 0.0635,-0.0635 0.02117,-5.376337 -0.296333,-0.783166 -0.105834,-1.397 z"
     id="path4581"
     inkscape:connector-curvature="0" />
  <path
     style="fill:none;stroke:none"
     d="M 78.464833,97.493667 78.4225,97.663 l -0.910167,0.465667 -1.143,0.232833 -0.381,0.9525 -0.486833,0.529167 -1.947333,-0.02117 0,0.105833 0.994833,0.994837 0.169333,0.889 0.8255,0.33866 0.486834,0.889 0.677333,0.61384 1.27,0.61383 0.804333,0.84667 0.0635,-0.0635 0.02117,-5.376337 -0.296333,-0.783166 -0.105834,-1.397 z"
     id="path4583"
     inkscape:connector-curvature="0" />
  <path
     style="fill:#dc241f;fill-opacity:1;fill-rule:nonzero;stroke:none"
     d="m 45.974,104.902 0.1905,-0.42333 0.486833,-0.6985 0.550334,-0.67734 0.423333,-1.12183 0.529167,-0.508 0.359833,-1.016 0.4445,-0.613833 0.592667,-0.635 0.275166,-0.5715 0.4445,-0.02117 1.037167,0.4445 0.846667,-0.169333 0.5715,0.254 0.486833,-0.3175 0.338667,0.211666 L 54.102,98.8695 54.250167,98.425 54.864,97.832333 54.567667,97.493667 54.356,96.731667 54.017333,97.0915 l -0.529166,-0.02117 -0.740834,-0.3175 -0.508,0.381 -2.137833,-0.296333 -0.338667,0.656167 -2.815166,1.016 L 46.228,96.774 l -0.1905,0 -0.169333,0.02117 -1.735667,1.185333 -0.02117,-0.02117 -0.02117,0.02117 -0.169334,-0.254 -0.02117,0 -0.275167,-0.04233 -0.402167,0.550333 -0.275166,0.296333 -0.465667,0.5715 -0.02117,0.275167 -0.529166,0.465667 0.3175,0.338663 0.296333,0.29634 0,0.0212 0.02117,0.0212 -0.8255,0.61383 -0.508,-0.40216 -0.148167,0 -0.613833,0.61383 -0.613834,-0.65617 -0.02117,0 -0.529167,0.0423 0.0635,0.381 -0.719667,-0.0212 -1.121833,-0.14817 0.402167,0.65617 0.740833,1.5875 0.846667,0.97367 3.661833,-0.48684 0.359833,0.9525 0.910167,0.78317 0.804333,-0.29633 0.4445,-0.0847 0.211667,-0.10583 0.0635,-0.0212 z"
     id="path4585"
     inkscape:connector-curvature="0" />
  <path
     style="fill:none;stroke:none"
     d="m 45.974,104.902 0.1905,-0.42333 0.486833,-0.6985 0.550334,-0.67734 0.423333,-1.12183 0.529167,-0.508 0.359833,-1.016 0.4445,-0.613833 0.592667,-0.635 0.275166,-0.5715 0.4445,-0.02117 1.037167,0.4445 0.846667,-0.169333 0.5715,0.254 0.486833,-0.3175 0.338667,0.211666 L 54.102,98.8695 54.250167,98.425 54.864,97.832333 54.567667,97.493667 54.356,96.731667 54.017333,97.0915 l -0.529166,-0.02117 -0.740834,-0.3175 -0.508,0.381 -2.137833,-0.296333 -0.338667,0.656167 -2.815166,1.016 L 46.228,96.774 l -0.1905,0 -0.169333,0.02117 -1.735667,1.185333 -0.02117,-0.02117 -0.02117,0.02117 -0.169334,-0.254 -0.02117,0 -0.275167,-0.04233 -0.402167,0.550333 -0.275166,0.296333 -0.465667,0.5715 -0.02117,0.275167 -0.529166,0.465667 0.3175,0.338663 0.296333,0.29634 0,0.0212 0.02117,0.0212 -0.8255,0.61383 -0.508,-0.40216 -0.148167,0 -0.613833,0.61383 -0.613834,-0.65617 -0.02117,0 -0.529167,0.0423 0.0635,0.381 -0.719667,-0.0212 -1.121833,-0.14817 0.402167,0.65617 0.740833,1.5875 0.846667,0.97367 3.661833,-0.48684 0.359833,0.9525 0.910167,0.78317 0.804333,-0.29633 0.4445,-0.0847 0.211667,-0.10583 0.0635,-0.0212 z"
     id="path4587"
     inkscape:connector-curvature="0" />
  <path
     style="fill:#dc241f;fill-opacity:1;fill-rule:nonzero;stroke:none"
     d="M 52.599167,107.46317 52.578,106.8705 52.154667,105.51583 51.816,104.4575 l -0.296333,-0.21167 -0.169334,-0.0212 -0.910166,0.48683 -0.508,0.381 -1.0795,1.16417 0.3175,1.62983 -0.846667,0.762 0.423333,0.35983 0.169334,0 0.254,-0.16933 0.381,-0.16933 -0.105834,-0.14817 1.3335,-0.80433 1.778,-0.254 0.04233,0 z"
     id="path4589"
     inkscape:connector-curvature="0" />
  <path
     style="fill:none;stroke:none"
     d="M 52.599167,107.46317 52.578,106.8705 52.154667,105.51583 51.816,104.4575 l -0.296333,-0.21167 -0.169334,-0.0212 -0.910166,0.48683 -0.508,0.381 -1.0795,1.16417 0.3175,1.62983 -0.846667,0.762 0.423333,0.35983 0.169334,0 0.254,-0.16933 0.381,-0.16933 -0.105834,-0.14817 1.3335,-0.80433 1.778,-0.254 0.04233,0 z"
     id="path4591"
     inkscape:connector-curvature="0" />
  <path
     style="fill:#dc241f;fill-opacity:1;fill-rule:nonzero;stroke:none"
     d="m 54.842833,107.315 0,-0.97367 0.359834,-0.99483 0.804333,-1.37583 0.359833,-0.40217 0,-0.4445 -0.105833,-0.35983 0,0 -3.005667,0.0847 -0.973666,0.23284 -0.486834,0.91016 -0.359833,0.254 0.08467,0 0.296333,0.21167 0.338667,1.05833 0.423333,1.35467 0.02117,0.59267 1.037166,0.21166 0.6985,-0.40216 0.508,0.0423 z"
     id="path4593"
     inkscape:connector-curvature="0" />
  <path
     style="fill:none;stroke:none"
     d="m 54.842833,107.315 0,-0.97367 0.359834,-0.99483 0.804333,-1.37583 0.359833,-0.40217 0,-0.4445 -0.105833,-0.35983 0,0 -3.005667,0.0847 -0.973666,0.23284 -0.486834,0.91016 -0.359833,0.254 0.08467,0 0.296333,0.21167 0.338667,1.05833 0.423333,1.35467 0.02117,0.59267 1.037166,0.21166 0.6985,-0.40216 0.508,0.0423 z"
     id="path4595"
     inkscape:connector-curvature="0" />
  <path
     style="fill:#dc241f;fill-opacity:1;fill-rule:nonzero;stroke:none"
     d="m 62.378167,98.022833 -0.8255,0.232834 -0.6985,-0.169334 -1.121834,0.5715 -0.529166,0.508 0.296333,0.423334 0,0.232833 -1.248833,1.18533 -0.423334,0.0635 -0.846666,0.52917 -0.592667,0.55033 -0.127,0.61384 0.105833,0.35983 0,0.4445 -0.359833,0.40217 -0.804333,1.37583 -0.359834,0.99483 0,0.97367 0.867834,0.0423 0.656166,-0.42333 0.232834,0 0.04233,0.9525 0.04233,0.0635 0.465667,-0.0212 1.143,-0.52916 0.486833,-0.0423 0.508,-0.42333 0.275167,0.48683 0.254,-0.508 0.04233,-0.5715 0.275167,-0.29633 0.804333,-0.55033 0.08467,-0.59267 0.994833,-0.9525 1.016,-0.508 1.9685,-2.24367 0.550334,0.635 1.164166,0 1.058334,0.6985 2.307166,0.33867 0.0635,0.0423 0.635,-0.40216 0.381,-1.12184 0.169334,-0.6985 -0.359834,-0.10583 -2.561166,-0.381 -2.201334,-0.16933 -0.338666,-0.508003 -0.148167,-0.486834 -1.756833,-0.6985 -1.5875,-0.3175 z"
     id="path4597"
     inkscape:connector-curvature="0" />
  <path
     style="fill:none;stroke:none"
     d="m 62.378167,98.022833 -0.8255,0.232834 -0.6985,-0.169334 -1.121834,0.5715 -0.529166,0.508 0.296333,0.423334 0,0.232833 -1.248833,1.18533 -0.423334,0.0635 -0.846666,0.52917 -0.592667,0.55033 -0.127,0.61384 0.105833,0.35983 0,0.4445 -0.359833,0.40217 -0.804333,1.37583 -0.359834,0.99483 0,0.97367 0.867834,0.0423 0.656166,-0.42333 0.232834,0 0.04233,0.9525 0.04233,0.0635 0.465667,-0.0212 1.143,-0.52916 0.486833,-0.0423 0.508,-0.42333 0.275167,0.48683 0.254,-0.508 0.04233,-0.5715 0.275167,-0.29633 0.804333,-0.55033 0.08467,-0.59267 0.994833,-0.9525 1.016,-0.508 1.9685,-2.24367 0.550334,0.635 1.164166,0 1.058334,0.6985 2.307166,0.33867 0.0635,0.0423 0.635,-0.40216 0.381,-1.12184 0.169334,-0.6985 -0.359834,-0.10583 -2.561166,-0.381 -2.201334,-0.16933 -0.338666,-0.508003 -0.148167,-0.486834 -1.756833,-0.6985 -1.5875,-0.3175 z"
     id="path4599"
     inkscape:connector-curvature="0" />
  <path
     style="fill:#dc241f;fill-opacity:1;fill-rule:nonzero;stroke:none"
     d="m 54.6735,96.393 -0.232833,0.232833 -0.08467,0.105834 0.211667,0.762 L 54.864,97.832333 54.250167,98.425 54.102,98.8695 53.551667,99.038833 53.213,98.827167 l -0.486833,0.3175 -0.5715,-0.254 L 51.308,99.06 l -1.037167,-0.4445 -0.4445,0.02117 -0.275166,0.5715 -0.592667,0.635 -0.4445,0.613833 -0.359833,1.016 -0.529167,0.508 -0.423333,1.12183 -0.550334,0.67734 -0.486833,0.6985 -0.1905,0.42333 0.127,-0.0212 0.08467,0.67734 -0.211667,0.33866 -0.529167,0 -0.740833,0.59267 -0.8255,0.27517 -0.592667,-0.0212 -1.0795,-0.80433 -1.143,1.0795 -0.9525,0.21166 0.402167,0.78317 0.02117,1.016 -0.4445,0.46567 1.0795,0.3175 1.5875,0.9525 0.381,0 0.613833,-0.55034 1.693333,0.48684 -0.3175,-0.381 0.08467,-0.27517 0.740833,-0.59267 0.719667,-0.0212 1.3335,0.6985 0.846667,-0.42334 0.677333,0.16934 0.677333,-0.254 0.338667,-0.33867 -0.889,-0.46567 -0.105833,-0.14816 -0.381,0.16933 -0.254,0.16933 -0.169334,0 -0.423333,-0.35983 0.846667,-0.762 -0.3175,-1.62983 1.0795,-1.16417 0.508,-0.381 0.910166,-0.48683 0.08467,0.0212 0.359833,-0.254 0.486834,-0.91016 0.973666,-0.23284 3.005667,-0.0847 0.127,-0.61384 0.592667,-0.55033 0.846666,-0.52917 0.423334,-0.0635 1.248833,-1.18533 0,-0.232833 -0.296333,-0.423334 -0.04233,0.04233 -0.592666,-0.592667 -0.889,-0.592667 -0.465667,-0.465666 0.5715,-0.359834 0,-0.232833 -0.762,-0.4445 -2.3495,-0.127 z"
     id="path4601"
     inkscape:connector-curvature="0" />
  <path
     style="fill:none;stroke:none"
     d="m 54.6735,96.393 -0.232833,0.232833 -0.08467,0.105834 0.211667,0.762 L 54.864,97.832333 54.250167,98.425 54.102,98.8695 53.551667,99.038833 53.213,98.827167 l -0.486833,0.3175 -0.5715,-0.254 L 51.308,99.06 l -1.037167,-0.4445 -0.4445,0.02117 -0.275166,0.5715 -0.592667,0.635 -0.4445,0.613833 -0.359833,1.016 -0.529167,0.508 -0.423333,1.12183 -0.550334,0.67734 -0.486833,0.6985 -0.1905,0.42333 0.127,-0.0212 0.08467,0.67734 -0.211667,0.33866 -0.529167,0 -0.740833,0.59267 -0.8255,0.27517 -0.592667,-0.0212 -1.0795,-0.80433 -1.143,1.0795 -0.9525,0.21166 0.402167,0.78317 0.02117,1.016 -0.4445,0.46567 1.0795,0.3175 1.5875,0.9525 0.381,0 0.613833,-0.55034 1.693333,0.48684 -0.3175,-0.381 0.08467,-0.27517 0.740833,-0.59267 0.719667,-0.0212 1.3335,0.6985 0.846667,-0.42334 0.677333,0.16934 0.677333,-0.254 0.338667,-0.33867 -0.889,-0.46567 -0.105833,-0.14816 -0.381,0.16933 -0.254,0.16933 -0.169334,0 -0.423333,-0.35983 0.846667,-0.762 -0.3175,-1.62983 1.0795,-1.16417 0.508,-0.381 0.910166,-0.48683 0.08467,0.0212 0.359833,-0.254 0.486834,-0.91016 0.973666,-0.23284 3.005667,-0.0847 0.127,-0.61384 0.592667,-0.55033 0.846666,-0.52917 0.423334,-0.0635 1.248833,-1.18533 0,-0.232833 -0.296333,-0.423334 -0.04233,0.04233 -0.592666,-0.592667 -0.889,-0.592667 -0.465667,-0.465666 0.5715,-0.359834 0,-0.232833 -0.762,-0.4445 -2.3495,-0.127 z"
     id="path4603"
     inkscape:connector-curvature="0" />
  <path
     style="fill:#dc241f;fill-opacity:1;fill-rule:nonzero;stroke:none"
     d="M 63.521167,115.8875 65.002833,114.173 64.8335,113.51683 64.558333,111.252 63.881,109.19883 l 0,-0.52916 1.100667,-1.143 0.02117,-0.84667 0.402167,-0.4445 2.159,-0.6985 0,-1.22767 -0.867833,-0.86783 0.02117,-1.016 -0.254,-0.59267 -0.910166,0 -0.550334,-0.635 -1.9685,2.24367 -1.016,0.508 -0.994833,0.9525 -0.08467,0.59267 -0.804333,0.55033 -0.275167,0.29633 -0.04233,0.5715 -0.254,0.508 -0.275167,-0.48683 -0.508,0.42333 -0.486833,0.0423 -1.143,0.52916 -0.465667,0.0212 0.846667,1.05833 0.402167,0.6985 0.423333,-0.254 1.672167,3.3655 0.254,1.27 0.783166,0.9525 0.508,0.78317 0.296334,0.0212 0.677333,-0.254 0.973667,0.29633 z"
     id="path4605"
     inkscape:connector-curvature="0" />
  <path
     style="fill:none;stroke:none"
     d="M 63.521167,115.8875 65.002833,114.173 64.8335,113.51683 64.558333,111.252 63.881,109.19883 l 0,-0.52916 1.100667,-1.143 0.02117,-0.84667 0.402167,-0.4445 2.159,-0.6985 0,-1.22767 -0.867833,-0.86783 0.02117,-1.016 -0.254,-0.59267 -0.910166,0 -0.550334,-0.635 -1.9685,2.24367 -1.016,0.508 -0.994833,0.9525 -0.08467,0.59267 -0.804333,0.55033 -0.275167,0.29633 -0.04233,0.5715 -0.254,0.508 -0.275167,-0.48683 -0.508,0.42333 -0.486833,0.0423 -1.143,0.52916 -0.465667,0.0212 0.846667,1.05833 0.402167,0.6985 0.423333,-0.254 1.672167,3.3655 0.254,1.27 0.783166,0.9525 0.508,0.78317 0.296334,0.0212 0.677333,-0.254 0.973667,0.29633 z"
     id="path4607"
     inkscape:connector-curvature="0" />
  <path
     style="fill:#dc241f;fill-opacity:1;fill-rule:nonzero;stroke:none"
     d="m 67.479333,105.57933 0.6985,0.40217 0.381,0.42333 0.550334,0.762 0.656166,0.3175 1.037167,0.33867 0.402167,0 1.545166,-0.55033 0.3175,0 1.545167,0.59266 0.613833,-0.0423 0.169334,-0.3175 0.0635,-0.33867 -0.105834,-0.0635 -0.254,0.29634 -0.5715,-0.635 -0.804333,-1.35467 -0.529167,-0.93133 -1.354666,-0.6985 -1.756834,-0.91017 -2.307166,-0.33867 -1.058334,-0.6985 -0.254,0 0.254,0.59267 -0.02117,1.016 0.867833,0.86783 0,1.22767 -0.08467,0.0423 z"
     id="path4609"
     inkscape:connector-curvature="0" />
  <path
     style="fill:none;stroke:none"
     d="m 67.479333,105.57933 0.6985,0.40217 0.381,0.42333 0.550334,0.762 0.656166,0.3175 1.037167,0.33867 0.402167,0 1.545166,-0.55033 0.3175,0 1.545167,0.59266 0.613833,-0.0423 0.169334,-0.3175 0.0635,-0.33867 -0.105834,-0.0635 -0.254,0.29634 -0.5715,-0.635 -0.804333,-1.35467 -0.529167,-0.93133 -1.354666,-0.6985 -1.756834,-0.91017 -2.307166,-0.33867 -1.058334,-0.6985 -0.254,0 0.254,0.59267 -0.02117,1.016 0.867833,0.86783 0,1.22767 -0.08467,0.0423 z"
     id="path4611"
     inkscape:connector-curvature="0" />
  <path
     style="fill:#dc241f;fill-opacity:1;fill-rule:nonzero;stroke:none"
     d="m 65.383833,118.618 0.254,0 1.5875,-0.86783 -1.0795,-0.67734 -0.02117,-0.84666 0.1905,-0.23284 0.740833,0.67734 0.127,-0.508 0.02117,-1.5875 0.740833,-0.71967 1.545167,-1.4605 0.359833,-0.0847 1.291167,-0.74083 0.6985,-0.91017 0,-0.381 -0.656167,-0.71966 0.02117,-0.14817 0.296333,-0.27517 -0.169333,-0.59266 -0.381,-0.52917 0,-0.1905 -0.148167,0 -1.037167,-0.33867 -0.656166,-0.3175 -0.550334,-0.762 -0.381,-0.42333 -0.6985,-0.40217 -2.074333,0.65617 -0.402167,0.4445 -0.02117,0.84667 -1.100667,1.143 0,0.52916 0.677333,2.05317 0.275167,2.26483 0.169333,0.65617 -1.481666,1.7145 0.232833,0.0635 0.04233,0.91017 0.994834,1.24883 0.550333,0.127 0.04233,0.381 z"
     id="path4613"
     inkscape:connector-curvature="0" />
  <path
     style="fill:none;stroke:none"
     d="m 65.383833,118.618 0.254,0 1.5875,-0.86783 -1.0795,-0.67734 -0.02117,-0.84666 0.1905,-0.23284 0.740833,0.67734 0.127,-0.508 0.02117,-1.5875 0.740833,-0.71967 1.545167,-1.4605 0.359833,-0.0847 1.291167,-0.74083 0.6985,-0.91017 0,-0.381 -0.656167,-0.71966 0.02117,-0.14817 0.296333,-0.27517 -0.169333,-0.59266 -0.381,-0.52917 0,-0.1905 -0.148167,0 -1.037167,-0.33867 -0.656166,-0.3175 -0.550334,-0.762 -0.381,-0.42333 -0.6985,-0.40217 -2.074333,0.65617 -0.402167,0.4445 -0.02117,0.84667 -1.100667,1.143 0,0.52916 0.677333,2.05317 0.275167,2.26483 0.169333,0.65617 -1.481666,1.7145 0.232833,0.0635 0.04233,0.91017 0.994834,1.24883 0.550333,0.127 0.04233,0.381 z"
     id="path4615"
     inkscape:connector-curvature="0" />
  <path
     style="fill:#dc241f;fill-opacity:1;fill-rule:nonzero;stroke:none"
     d="m 77.681667,112.268 1.481666,-1.62983 -0.465666,-1.05834 -0.127,-2.54 -0.105834,-0.33866 -2.963333,0.23283 -0.148167,0.16933 0.105834,0.0635 -0.0635,0.33867 -0.169334,0.3175 -0.613833,0.0423 -1.545167,-0.59266 -0.3175,0 -1.545166,0.55033 -0.254,0 0,0.1905 0.381,0.52917 0.169333,0.59266 -0.296333,0.27517 -0.02117,0.14817 0.656167,0.71966 0,0.381 -0.6985,0.91017 -1.291167,0.74083 -0.359833,0.0847 -1.545167,1.4605 -0.740833,0.71967 -0.02117,1.5875 -0.127,0.508 -0.740833,-0.67734 -0.1905,0.23284 0.02117,0.84666 1.0795,0.67734 -1.5875,0.86783 -0.254,0 0.04233,0.3175 0.613833,1.03717 1.185333,0.381 3.8735,0.3175 2.180167,0.10583 -0.296333,-1.31233 0,-0.10584 0.8255,-0.8255 -0.550334,-0.55033 -0.486833,-0.8255 0.02117,-0.381 0.508,-1.60867 0.254,-0.27516 0.254,-0.0212 0.529166,0.84667 0.592667,-0.52917 -0.02117,-0.59267 -0.254,-1.37583 0.508,-0.55033 1.3335,-0.254 0.529167,-0.42334 0.656167,0.27517 z"
     id="path4617"
     inkscape:connector-curvature="0" />
  <path
     style="fill:none;stroke:none"
     d="m 77.681667,112.268 1.481666,-1.62983 -0.465666,-1.05834 -0.127,-2.54 -0.105834,-0.33866 -2.963333,0.23283 -0.148167,0.16933 0.105834,0.0635 -0.0635,0.33867 -0.169334,0.3175 -0.613833,0.0423 -1.545167,-0.59266 -0.3175,0 -1.545166,0.55033 -0.254,0 0,0.1905 0.381,0.52917 0.169333,0.59266 -0.296333,0.27517 -0.02117,0.14817 0.656167,0.71966 0,0.381 -0.6985,0.91017 -1.291167,0.74083 -0.359833,0.0847 -1.545167,1.4605 -0.740833,0.71967 -0.02117,1.5875 -0.127,0.508 -0.740833,-0.67734 -0.1905,0.23284 0.02117,0.84666 1.0795,0.67734 -1.5875,0.86783 -0.254,0 0.04233,0.3175 0.613833,1.03717 1.185333,0.381 3.8735,0.3175 2.180167,0.10583 -0.296333,-1.31233 0,-0.10584 0.8255,-0.8255 -0.550334,-0.55033 -0.486833,-0.8255 0.02117,-0.381 0.508,-1.60867 0.254,-0.27516 0.254,-0.0212 0.529166,0.84667 0.592667,-0.52917 -0.02117,-0.59267 -0.254,-1.37583 0.508,-0.55033 1.3335,-0.254 0.529167,-0.42334 0.656167,0.27517 z"
     id="path4619"
     inkscape:connector-curvature="0" />
  <path
     style="fill:#dc241f;fill-opacity:1;fill-rule:nonzero;stroke:none"
     d="m 78.613,113.411 -0.04233,0 0,0 0.04233,0 z"
     id="path4621"
     inkscape:connector-curvature="0" />
  <path
     style="fill:none;stroke:none"
     d="m 78.613,113.411 -0.04233,0 0,0 0.04233,0 z"
     id="path4623"
     inkscape:connector-curvature="0" />
  <path
     style="fill:#dc241f;fill-opacity:1;fill-rule:nonzero;stroke:none"
     d="m 84.836,109.1565 -0.169333,-0.27517 -1.121834,1.18534 -1.164166,0.381 -1.312334,0.52916 -0.846666,0.23284 -1.2065,0.9525 -0.338667,0.29633 -0.02117,0.93133 0.465667,-0.10583 0.0635,-0.91017 1.566333,-1.24883 1.016,-0.254 2.243667,-0.86783 0.8255,-0.84667 z"
     id="path4625"
     inkscape:connector-curvature="0" />
  <path
     style="fill:none;stroke:none"
     d="m 84.836,109.1565 -0.169333,-0.27517 -1.121834,1.18534 -1.164166,0.381 -1.312334,0.52916 -0.846666,0.23284 -1.2065,0.9525 -0.338667,0.29633 -0.02117,0.93133 0.465667,-0.10583 0.0635,-0.91017 1.566333,-1.24883 1.016,-0.254 2.243667,-0.86783 0.8255,-0.84667 z"
     id="path4627"
     inkscape:connector-curvature="0" />
  <path
     style="fill:#dc241f;fill-opacity:1;fill-rule:nonzero;stroke:none"
     d="M 84.603167,108.94483 84.328,108.839 l -0.6985,-0.127 -0.783167,-0.9525 -0.550333,-1.05833 -0.02117,-1.22767 -0.465666,-0.67733 -0.529167,-0.0635 -0.5715,-0.9525 0,-0.8255 0.4445,-0.40217 0.804333,0 0.211667,-0.4445 -0.359833,-1.03717 -0.3175,-0.52916 -0.740834,-1.016003 -0.6985,-1.016 -0.4445,-1.058334 -0.656166,-0.656166 -0.211667,-0.169334 -0.0635,0.08467 -0.211667,0.783167 0.105834,1.397 0.296333,0.783166 -0.02117,5.376337 -0.254,0.33866 0.04233,0.23284 0.232833,1.03716 -0.402167,0.0423 0.105834,0.33866 0.127,2.54 0.465666,1.05834 -1.481666,1.62983 0.3175,0.127 0.5715,1.016 0.04233,0 0.04233,-0.0212 0.02117,-0.93133 0.338667,-0.29633 1.2065,-0.9525 0.846666,-0.23284 1.312334,-0.52916 1.164166,-0.381 1.058334,-1.12184 z"
     id="path4629"
     inkscape:connector-curvature="0" />
  <path
     style="fill:none;stroke:none"
     d="M 84.603167,108.94483 84.328,108.839 l -0.6985,-0.127 -0.783167,-0.9525 -0.550333,-1.05833 -0.02117,-1.22767 -0.465666,-0.67733 -0.529167,-0.0635 -0.5715,-0.9525 0,-0.8255 0.4445,-0.40217 0.804333,0 0.211667,-0.4445 -0.359833,-1.03717 -0.3175,-0.52916 -0.740834,-1.016003 -0.6985,-1.016 -0.4445,-1.058334 -0.656166,-0.656166 -0.211667,-0.169334 -0.0635,0.08467 -0.211667,0.783167 0.105834,1.397 0.296333,0.783166 -0.02117,5.376337 -0.254,0.33866 0.04233,0.23284 0.232833,1.03716 -0.402167,0.0423 0.105834,0.33866 0.127,2.54 0.465666,1.05834 -1.481666,1.62983 0.3175,0.127 0.5715,1.016 0.04233,0 0.04233,-0.0212 0.02117,-0.93133 0.338667,-0.29633 1.2065,-0.9525 0.846666,-0.23284 1.312334,-0.52916 1.164166,-0.381 1.058334,-1.12184 z"
     id="path4631"
     inkscape:connector-curvature="0" />
  <path
     style="fill:#dc241f;fill-opacity:1;fill-rule:nonzero;stroke:none"
     d="m 84.941833,109.05067 -0.232833,-0.0635 0.127,0.16933 0.105833,-0.10583 z"
     id="path4633"
     inkscape:connector-curvature="0" />
  <path
     style="fill:none;stroke:none"
     d="m 84.941833,109.05067 -0.232833,-0.0635 0.127,0.16933 0.105833,-0.10583 z"
     id="path4635"
     inkscape:connector-curvature="0" />
  <path
     style="fill:#dc241f;fill-opacity:1;fill-rule:nonzero;stroke:none"
     d="m 86.338833,106.65883 -0.296333,0 -0.529167,-0.14816 -0.973666,0.1905 -0.4445,-0.508 -0.804334,-4.8895 -0.9525,-1.16417 -0.275166,-0.550333 -0.359834,-0.254 -0.3175,1.079503 0.105834,0.127 0.3175,0.52916 0.359833,1.03717 -0.211667,0.4445 -0.804333,0 -0.4445,0.40217 0,0.8255 0.5715,0.9525 0.529167,0.0635 0.465666,0.67733 0.02117,1.22767 0.550333,1.05833 0.783167,0.9525 0.6985,0.127 0.275167,0.10583 0.0635,-0.0635 0.04233,0.10584 0.232833,0.0635 0.169334,-0.1905 0.127,-0.16934 0.381,-0.254 0.211666,0.21167 0.3175,0.0423 0.931334,-0.59266 -0.550334,-0.48684 0.1905,-0.29633 -0.423333,-0.59267 0.04233,-0.0635 z"
     id="path4637"
     inkscape:connector-curvature="0" />
  <path
     style="fill:none;stroke:none"
     d="m 86.338833,106.65883 -0.296333,0 -0.529167,-0.14816 -0.973666,0.1905 -0.4445,-0.508 -0.804334,-4.8895 -0.9525,-1.16417 -0.275166,-0.550333 -0.359834,-0.254 -0.3175,1.079503 0.105834,0.127 0.3175,0.52916 0.359833,1.03717 -0.211667,0.4445 -0.804333,0 -0.4445,0.40217 0,0.8255 0.5715,0.9525 0.529167,0.0635 0.465666,0.67733 0.02117,1.22767 0.550333,1.05833 0.783167,0.9525 0.6985,0.127 0.275167,0.10583 0.0635,-0.0635 0.04233,0.10584 0.232833,0.0635 0.169334,-0.1905 0.127,-0.16934 0.381,-0.254 0.211666,0.21167 0.3175,0.0423 0.931334,-0.59266 -0.550334,-0.48684 0.1905,-0.29633 -0.423333,-0.59267 0.04233,-0.0635 z"
     id="path4639"
     inkscape:connector-curvature="0" />
  <path
     style="fill:#dc241f;fill-opacity:1;fill-rule:nonzero;stroke:none"
     d="m 85.2805,106.553 0,-0.46567 0.635,-1.29116 0.296333,-0.93134 0,-0.84666 -0.1905,-0.14817 -0.613833,-0.0212 -0.359833,0.23284 -0.1905,-0.381 0.148166,-3.598337 0.275167,-0.254 -1.291167,-1.185333 -1.164166,0.02117 0.3175,2.243666 -0.508,0.571497 0.656166,0.80434 0.804334,4.8895 0.4445,0.508 0.740833,-0.14817 z"
     id="path4641"
     inkscape:connector-curvature="0" />
  <path
     style="fill:none;stroke:none"
     d="m 85.2805,106.553 0,-0.46567 0.635,-1.29116 0.296333,-0.93134 0,-0.84666 -0.1905,-0.14817 -0.613833,-0.0212 -0.359833,0.23284 -0.1905,-0.381 0.148166,-3.598337 0.275167,-0.254 -1.291167,-1.185333 -1.164166,0.02117 0.3175,2.243666 -0.508,0.571497 0.656166,0.80434 0.804334,4.8895 0.4445,0.508 0.740833,-0.14817 z"
     id="path4643"
     inkscape:connector-curvature="0" />
  <path
     style="fill:#dc241f;fill-opacity:1;fill-rule:nonzero;stroke:none"
     d="m 84.814833,97.324333 -0.783166,0.381 1.248833,1.143 -0.275167,0.254 -0.148166,3.598337 0.1905,0.381 0.359833,-0.23284 0.613833,0.0212 0.1905,0.14817 0,0.84666 -0.296333,0.93134 -0.635,1.29116 0,0.46567 0.232833,-0.0423 0.529167,0.14816 0.296333,0 0.08467,-0.23283 0.381,-0.21167 0.232833,0 1.8415,1.0795 -0.359833,0.16934 -0.402167,1.05833 0.127,1.05833 0.931334,0.99484 0.613833,0.91016 1.100667,-0.74083 0.275166,-0.67733 0.211667,-0.0212 0.529167,0.65617 0.211666,0.127 0.04233,-0.6985 0.232833,-1.16417 -0.762,-0.8255 -0.931333,-0.381 -0.359834,-0.42333 0.105834,-0.635 -0.656167,-1.43934 -0.973667,-1.05833 -0.02117,-0.52917 0.529166,-1.29116 -0.02117,-0.46567 -0.550334,-0.59267 -0.550333,-0.3175 -0.783167,-2.497663 -0.9525,-0.846667 -0.211666,-0.592667 -0.783167,0.04233 -0.381,0.232833 -0.275167,0.04233 0,-0.0635 z"
     id="path4645"
     inkscape:connector-curvature="0" />
  <path
     style="fill:none;stroke:none"
     d="m 84.814833,97.324333 -0.783166,0.381 1.248833,1.143 -0.275167,0.254 -0.148166,3.598337 0.1905,0.381 0.359833,-0.23284 0.613833,0.0212 0.1905,0.14817 0,0.84666 -0.296333,0.93134 -0.635,1.29116 0,0.46567 0.232833,-0.0423 0.529167,0.14816 0.296333,0 0.08467,-0.23283 0.381,-0.21167 0.232833,0 1.8415,1.0795 -0.359833,0.16934 -0.402167,1.05833 0.127,1.05833 0.931334,0.99484 0.613833,0.91016 1.100667,-0.74083 0.275166,-0.67733 0.211667,-0.0212 0.529167,0.65617 0.211666,0.127 0.04233,-0.6985 0.232833,-1.16417 -0.762,-0.8255 -0.931333,-0.381 -0.359834,-0.42333 0.105834,-0.635 -0.656167,-1.43934 -0.973667,-1.05833 -0.02117,-0.52917 0.529166,-1.29116 -0.02117,-0.46567 -0.550334,-0.59267 -0.550333,-0.3175 -0.783167,-2.497663 -0.9525,-0.846667 -0.211666,-0.592667 -0.783167,0.04233 -0.381,0.232833 -0.275167,0.04233 0,-0.0635 z"
     id="path4647"
     inkscape:connector-curvature="0" />
  <path
     style="fill:#dc241f;fill-opacity:1;fill-rule:nonzero;stroke:none"
     d="m 79.375,95.863833 -0.635,0.762 0.211667,0.169334 0.656166,0.656166 0.4445,1.058334 0.6985,1.016 0.635,0.889003 0.3175,-1.079503 0.359834,0.254 0.275166,0.550333 0.296334,0.35983 0.508,-0.571497 -0.3175,-2.243666 1.164166,-0.02117 0.04233,0.04233 0.783166,-0.381 0,-0.232833 -0.592666,-0.3175 -0.08467,-0.423333 0.02117,-0.02117 -3.259667,0 -1.248833,-0.465667 -0.275167,0 z"
     id="path4649"
     inkscape:connector-curvature="0" />
  <path
     style="fill:none;stroke:none"
     d="m 79.375,95.863833 -0.635,0.762 0.211667,0.169334 0.656166,0.656166 0.4445,1.058334 0.6985,1.016 0.635,0.889003 0.3175,-1.079503 0.359834,0.254 0.275166,0.550333 0.296334,0.35983 0.508,-0.571497 -0.3175,-2.243666 1.164166,-0.02117 0.04233,0.04233 0.783166,-0.381 0,-0.232833 -0.592666,-0.3175 -0.08467,-0.423333 0.02117,-0.02117 -3.259667,0 -1.248833,-0.465667 -0.275167,0 z"
     id="path4651"
     inkscape:connector-curvature="0" />
  <path
     style="fill:#dc241f;fill-opacity:1;fill-rule:nonzero;stroke:none"
     d="m 85.7885,95.0595 -1.058333,0.804333 -0.296334,0.254 1.354667,-1.058333 0,0 z"
     id="path4653"
     inkscape:connector-curvature="0" />
  <path
     style="fill:none;stroke:none"
     d="m 85.7885,95.0595 -1.058333,0.804333 -0.296334,0.254 1.354667,-1.058333 0,0 z"
     id="path4655"
     inkscape:connector-curvature="0" />
  <path
     style="fill:#dc241f;fill-opacity:1;fill-rule:nonzero;stroke:none"
     d="M 86.8045,93.175667 86.254167,94.107 85.7885,95.0595 l 1.016,-1.883833 z"
     id="path4657"
     inkscape:connector-curvature="0" />
  <path
     style="fill:none;stroke:none"
     d="M 86.8045,93.175667 86.254167,94.107 85.7885,95.0595 l 1.016,-1.883833 z"
     id="path4659"
     inkscape:connector-curvature="0" />
  <path
     style="fill:#dc241f;fill-opacity:1;fill-rule:nonzero;stroke:none"
     d="m 87.799333,91.397667 -0.508,0.423333 0.508,-0.423333 0,0 z"
     id="path4661"
     inkscape:connector-curvature="0" />
  <path
     style="fill:none;stroke:none"
     d="m 87.799333,91.397667 -0.508,0.423333 0.508,-0.423333 0,0 z"
     id="path4663"
     inkscape:connector-curvature="0" />
  <path
     style="fill:#dc241f;fill-opacity:1;fill-rule:nonzero;stroke:none"
     d="m 85.725,88.222667 0.359833,0.232833 0.0635,0.783167 0.804334,0.486833 0.592666,0.9525 -0.04233,-0.08467 -0.5715,-0.910166 -0.740833,-0.4445 L 86.084833,88.4555 85.725,88.222667 Z"
     id="path4665"
     inkscape:connector-curvature="0" />
  <path
     style="fill:none;stroke:none"
     d="m 85.725,88.222667 0.359833,0.232833 0.0635,0.783167 0.804334,0.486833 0.592666,0.9525 -0.04233,-0.08467 -0.5715,-0.910166 -0.740833,-0.4445 L 86.084833,88.4555 85.725,88.222667 Z"
     id="path4667"
     inkscape:connector-curvature="0" />
  <path
     style="fill:#dc241f;fill-opacity:1;fill-rule:nonzero;stroke:none"
     d="m 85.703833,87.418333 -0.02117,0.02117 -0.02117,0.148167 0.04233,-0.169334 z"
     id="path4669"
     inkscape:connector-curvature="0" />
  <path
     style="fill:none;stroke:none"
     d="m 85.703833,87.418333 -0.02117,0.02117 -0.02117,0.148167 0.04233,-0.169334 z"
     id="path4671"
     inkscape:connector-curvature="0" />
  <path
     style="fill:#dc241f;fill-opacity:1;fill-rule:nonzero;stroke:none"
     d="m 86.2965,87.0585 -0.3175,0.1905 0.3175,-0.1905 0,0 z"
     id="path4673"
     inkscape:connector-curvature="0" />
  <path
     style="fill:none;stroke:none"
     d="m 86.2965,87.0585 -0.3175,0.1905 0.3175,-0.1905 0,0 z"
     id="path4675"
     inkscape:connector-curvature="0" />
  <path
     style="fill:#dc241f;fill-opacity:1;fill-rule:nonzero;stroke:none"
     d="m 80.179333,59.668833 -0.486833,0.08467 -1.397,1.058333 -0.381,0.08467 -0.762,0.910167 -0.529167,0.02117 L 75.819,61.0235 l -0.529167,0.402167 -0.0635,0.0635 -0.148166,0.105833 -1.100667,0.994833 -1.016,0.973667 -0.9525,0.1905 -0.846667,0.402167 -0.4445,0 -0.613833,-0.296334 -0.508,-0.783166 -0.381,0.02117 -1.016,0.613834 -0.973667,1.164166 -0.3175,0.127 -0.254,0.783167 -0.359833,-0.02117 -0.529167,-0.9525 -0.402166,0.02117 -1.905,1.905 -1.121834,0.04233 -0.804333,0.719667 0.423333,0.550333 0.04233,0.740834 -0.4445,0.613833 0.169333,0.486833 -0.254,0.4445 0.719667,0.529167 -0.973667,0.719667 0.0635,5.926666 0.232833,0.338667 0,0.3175 -0.550333,0.613833 -1.121833,0.804334 0.08467,0.359833 0.338667,0.338667 1.164167,0.402166 0.08467,0.232834 -0.232833,0.402166 0,0.508 1.0795,0.592667 0.9525,0.359833 0.338667,0.613834 0.635,0.6985 0.04233,0.550333 -1.037167,0.931333 -0.359833,0.508 L 62.484,86.487 62.23,86.592833 61.489167,87.249 l 0,0.211667 0.5715,0.846666 0.02117,0.1905 -0.529166,1.185334 0.1905,0.846666 -0.423334,0.783167 -1.524,1.947333 -0.08467,0.592667 -0.402167,0.486833 -0.254,0.973667 -0.656167,0.656167 -0.359833,0.6985 -0.254,0.296333 0,0.232833 -0.5715,0.359834 0.465667,0.465666 0.889,0.592667 0.592666,0.592667 0.5715,-0.550334 1.121834,-0.5715 0.6985,0.169334 0.8255,-0.232834 1.5875,0.3175 1.756833,0.6985 0.148167,0.486834 0.338666,0.508003 2.201334,0.16933 2.561166,0.381 0.8255,0.254 0.338667,-0.0423 1.058333,-0.97367 2.307167,0.02117 0.486833,-0.529167 0.381,-0.9525 1.143,-0.232833 0.910167,-0.465667 0.254,-0.9525 0.6985,-0.846667 0.275167,0 1.248833,0.465667 3.259667,0 0.275166,-0.211667 0.296334,-0.254 L 85.7885,95.0595 86.254167,94.107 86.8045,93.175667 86.868,93.0275 l 0,-0.867833 0.423333,-0.338667 0.508,-0.423333 -0.254,-0.719667 -0.592666,-0.9525 -0.804334,-0.486833 -0.0635,-0.783167 -0.359833,-0.232833 -0.211667,-0.127 0.148167,-0.508 0.02117,-0.148167 0.02117,-0.02117 0,0 L 85.979,87.249 86.2965,87.0585 85.555667,85.195833 85.492167,83.6295 84.814833,82.317167 84.7725,81.5975 l 0.465667,-1.629833 -0.254,-0.254 -1.3335,-0.3175 -0.02117,-0.359834 0.677333,-0.508 1.291167,-0.359833 1.0795,-0.867833 -0.275167,-0.423334 -0.3175,-0.04233 -0.635,0.4445 -0.8255,-0.338667 0,-0.1905 1.037167,-1.3335 0.296333,-0.8255 0.931334,-0.381 L 87.1855,73.279 87.354833,72.114833 88.794167,71.162333 90.678,70.993 l 0.169333,-0.381 -0.889,-0.783167 -1.100666,-0.296333 0.0635,-0.910167 1.185333,-1.375833 0.635,-1.0795 0.127,-0.613833 -2.794,-0.465667 -0.931333,0.296333 -0.804334,-0.275166 -0.762,-0.6985 -1.7145,-1.164167 -0.9525,-0.656167 -0.6985,-0.4445 -0.5715,-0.5715 0.211667,-0.423333 0.02117,-0.423333 -0.4445,-0.740834 -1.248834,-0.3175 z"
     id="path4677"
     inkscape:connector-curvature="0" />
  <path
     style="fill:none;stroke:none"
     d="m 80.179333,59.668833 -0.486833,0.08467 -1.397,1.058333 -0.381,0.08467 -0.762,0.910167 -0.529167,0.02117 L 75.819,61.0235 l -0.529167,0.402167 -0.0635,0.0635 -0.148166,0.105833 -1.100667,0.994833 -1.016,0.973667 -0.9525,0.1905 -0.846667,0.402167 -0.4445,0 -0.613833,-0.296334 -0.508,-0.783166 -0.381,0.02117 -1.016,0.613834 -0.973667,1.164166 -0.3175,0.127 -0.254,0.783167 -0.359833,-0.02117 -0.529167,-0.9525 -0.402166,0.02117 -1.905,1.905 -1.121834,0.04233 -0.804333,0.719667 0.423333,0.550333 0.04233,0.740834 -0.4445,0.613833 0.169333,0.486833 -0.254,0.4445 0.719667,0.529167 -0.973667,0.719667 0.0635,5.926666 0.232833,0.338667 0,0.3175 -0.550333,0.613833 -1.121833,0.804334 0.08467,0.359833 0.338667,0.338667 1.164167,0.402166 0.08467,0.232834 -0.232833,0.402166 0,0.508 1.0795,0.592667 0.9525,0.359833 0.338667,0.613834 0.635,0.6985 0.04233,0.550333 -1.037167,0.931333 -0.359833,0.508 L 62.484,86.487 62.23,86.592833 61.489167,87.249 l 0,0.211667 0.5715,0.846666 0.02117,0.1905 -0.529166,1.185334 0.1905,0.846666 -0.423334,0.783167 -1.524,1.947333 -0.08467,0.592667 -0.402167,0.486833 -0.254,0.973667 -0.656167,0.656167 -0.359833,0.6985 -0.254,0.296333 0,0.232833 -0.5715,0.359834 0.465667,0.465666 0.889,0.592667 0.592666,0.592667 0.5715,-0.550334 1.121834,-0.5715 0.6985,0.169334 0.8255,-0.232834 1.5875,0.3175 1.756833,0.6985 0.148167,0.486834 0.338666,0.508003 2.201334,0.16933 2.561166,0.381 0.8255,0.254 0.338667,-0.0423 1.058333,-0.97367 2.307167,0.02117 0.486833,-0.529167 0.381,-0.9525 1.143,-0.232833 0.910167,-0.465667 0.254,-0.9525 0.6985,-0.846667 0.275167,0 1.248833,0.465667 3.259667,0 0.275166,-0.211667 0.296334,-0.254 L 85.7885,95.0595 86.254167,94.107 86.8045,93.175667 86.868,93.0275 l 0,-0.867833 0.423333,-0.338667 0.508,-0.423333 -0.254,-0.719667 -0.592666,-0.9525 -0.804334,-0.486833 -0.0635,-0.783167 -0.359833,-0.232833 -0.211667,-0.127 0.148167,-0.508 0.02117,-0.148167 0.02117,-0.02117 0,0 L 85.979,87.249 86.2965,87.0585 85.555667,85.195833 85.492167,83.6295 84.814833,82.317167 84.7725,81.5975 l 0.465667,-1.629833 -0.254,-0.254 -1.3335,-0.3175 -0.02117,-0.359834 0.677333,-0.508 1.291167,-0.359833 1.0795,-0.867833 -0.275167,-0.423334 -0.3175,-0.04233 -0.635,0.4445 -0.8255,-0.338667 0,-0.1905 1.037167,-1.3335 0.296333,-0.8255 0.931334,-0.381 L 87.1855,73.279 87.354833,72.114833 88.794167,71.162333 90.678,70.993 l 0.169333,-0.381 -0.889,-0.783167 -1.100666,-0.296333 0.0635,-0.910167 1.185333,-1.375833 0.635,-1.0795 0.127,-0.613833 -2.794,-0.465667 -0.931333,0.296333 -0.804334,-0.275166 -0.762,-0.6985 -1.7145,-1.164167 -0.9525,-0.656167 -0.6985,-0.4445 -0.5715,-0.5715 0.211667,-0.423333 0.02117,-0.423333 -0.4445,-0.740834 -1.248834,-0.3175 z"
     id="path4679"
     inkscape:connector-curvature="0" />
  <path
     style="fill:#dc241f;fill-opacity:1;fill-rule:nonzero;stroke:#000000;stroke-width:0.16933334px;stroke-linecap:butt;stroke-linejoin:miter;stroke-miterlimit:4;stroke-dasharray:none;stroke-opacity:1"
     d="m 36.8935,16.213667 1.037167,-0.994834 0.973666,-0.677333 0.677334,-0.486833 0.423333,0 0,0.592666 -1.3335,1.481667 -0.931333,0.1905 0.211666,0.486833 0.254,0.804334 0.5715,-0.423334 1.121834,0.254 0.9525,0.677334 0.889,0.3175 0.3175,-0.148167 -0.508,-0.529167 0,-0.529166 1.27,-0.169334 1.566333,-0.931333 1.502833,-1.016 0.931334,-0.5715 0.381,-0.973667 0.994833,-0.9525 1.375833,-0.423333 1.693334,-1.481667 0.846666,-0.931333 0.3175,-0.021167 0.127,-0.8466666 0.8255,-0.6773334 L 53.234167,8.0645 51.794833,7.747 51.329167,7.5565 49.805167,8.2761667 47.984833,8.6148333 47.582667,8.382 47.476833,7.8105 47.667333,7.3236667 46.312667,5.5245 45.889333,3.7888333 45.190833,3.7465 44.809833,3.2596667 44.407667,3.429 43.984333,2.6881667 44.3865,2.1378333 44.598167,1.4605 44.238333,0.71966667 43.857333,0.93133333 42.502667,0.4445 41.423167,0.67733333 40.894,0.254 38.4175,0.08466667 37.676667,0.99483333 36.83,0.65616667 36.364333,1.2911667 35.665833,0.97366667 34.3535,1.397 33.760833,1.5663333 33.3375,1.2911667 l -0.423333,0 L 33.655,2.7728333 33.760833,4.8895 33.3375,6.0748333 l 0,0.2963334 0.529167,0.5926666 0,0.8043334 -0.889,0.9948333 0.9525,0.9525 0.465666,1.121833 0.846667,0.783167 0.529167,1.481667 0.105833,1.418166 0.740833,0.423334 0.0635,1.397 0.211667,-0.127 z"
     id="path4681"
     inkscape:connector-curvature="0" />
  <path
     style="fill:#dc241f;fill-opacity:1;fill-rule:nonzero;stroke:#000000;stroke-width:0.16933334px;stroke-linecap:butt;stroke-linejoin:miter;stroke-miterlimit:4;stroke-dasharray:none;stroke-opacity:1"
     d="M 29.2735,6.6886667 30.331833,6.858 30.522333,6.7098333 31.369,7.3871667 31.855833,7.493 32.131,8.2338333 l 0.296333,0.3175 0,0.3175 -0.1905,0.1481667 0.08467,0.381 0.423333,0.3598333 0,0.4444997 -0.423333,0.359834 -0.402167,0.275166 -0.4445,-0.232833 -0.465666,-0.9313333 0.275166,-0.2328334 -0.762,-0.6773333 -1.143,-0.042333 -0.381,0.1905 0,-0.4656667 L 29.2735,7.874 28.829,7.3448333 28.998333,7.112 l 0.105834,-0.4233333 0.169333,0 z"
     id="path4683"
     inkscape:connector-curvature="0" />
</svg>
